<?xml version="1.0" encoding="utf-8"?>
<!-- Generator: Adobe Illustrator 26.0.1, SVG Export Plug-In . SVG Version: 6.00 Build 0)  -->
<svg version="1.1" id="Layer_1" xmlns="http://www.w3.org/2000/svg" xmlns:xlink="http://www.w3.org/1999/xlink" x="0px" y="0px"
	 viewBox="0 0 178 189" style="enable-background:new 0 0 178 189;" xml:space="preserve">
<style type="text/css">
	.st0{fill:#0A974F;}
	.st1{fill:#15627B;}
</style>
<g>
	<path class="st0" d="M106.75,174.41c-7.55,0.53-7.55,0.53-8.52-6.15c0-0.31,0-0.63-0.11-0.99c-0.45-2.47,0.56-5.66-1.34-7.25
		c-1.67-1.39-4.57-0.18-6.96-0.3c-2.39-0.12-4.46,0.07-6.67-0.15c-2.21-0.22-2.78,0.7-2.98,2.63c-0.26,2.98-0.63,5.96-1.12,8.95
		c-0.57,3.41-0.65,3.43-4.27,3.43c-1.07,0-2.21,0.34-3.52-0.53c0.44-2.98,0.89-6.06,1.33-9.16c0.18-1.26,0.31-2.53,0.47-3.79
		c0.23-1.84-0.34-3.04-2.37-3.39c-1.7-0.31-3.38-0.71-5.03-1.2c-32.22-9.41-55.41-37.58-58.43-71.01c-0.22-2.37-0.43-4.74-0.49-7.13
		c-0.08-4.17,0-4.23,4.24-3.5c4.56,0.67,9.05,1.77,13.4,3.28c32.73,12.12,51.29,35.49,55.67,70.13c0.45,3.62,0.37,3.62,3.78,3.98
		c3.31,0.33,6.64,0.33,9.94,0c3.57-0.36,3.67-0.34,3.98-3.82c0.37-5.55,1.43-11.04,3.15-16.33c10.86-32.13,33.1-51.15,66.35-57.26
		c3.91-0.73,4.05-0.5,4.03,2.86c0,36.19-23.7,68.12-58.35,78.59c-1.22,0.37-2.45,0.72-3.67,0.99c-4.81,1.25-4.86,1.26-4.18,6.39
		C105.54,167.17,106.16,170.6,106.75,174.41z M14.16,83.74c0.66,3.79,0.99,7.43,1.93,10.94c7.27,28.12,24.85,46.45,52.59,55.05
		c4.17,1.29,4.37,0.58,3.91-3.29c-3.48-29-24.85-54.08-53.21-62.13C17.9,83.87,16.46,82.95,14.16,83.74z M163.37,83.39
		c-36.52,6.74-58.43,42.14-57.78,66.87C134.76,145.27,161.73,117,163.37,83.39z"/>
	<path class="st1" d="M88.99,14.35c7.95,11.24,16.27,21.5,22.87,32.94c3.17,5.17,5.44,10.84,6.7,16.77
		c2.89,15.35-7.24,31.13-22.52,35.01c-16.09,3.92-32.32-5.95-36.24-22.05c-1.29-5.31-1.11-10.88,0.53-16.09
		c1.67-5.47,4.07-10.7,7.14-15.53c2.98-4.71,5.96-9.37,9.17-13.92C80.53,25.9,84.59,20.43,88.99,14.35z M88.99,25.56
		c-7.55,10.51-15.14,20.29-20.27,31.65c-1.17,2.6-2.08,5.32-2.7,8.1c-2.05,9.23,2.23,19.08,10.32,24.32
		c8,5.11,18.31,4.83,26.02-0.72c8.9-6.5,12.36-18.14,8.44-28.44C106.1,47.44,97.08,37.1,89.04,25.56H88.99z"/>
	<path class="st1" d="M80.4,86.93c-3.69-1.86-6.63-4.91-8.36-8.66c-0.48-0.99-0.62-1.86,0.56-2.31c0.99-0.38,2.26-1.12,2.98,0.15
		c1.46,2.58,3.4,4.85,5.73,6.68C83.09,84.23,81.37,85.53,80.4,86.93z"/>
</g>
</svg>
