<?xml version="1.0" encoding="utf-8"?>
<!-- Generator: Adobe Illustrator 24.0.0, SVG Export Plug-In . SVG Version: 6.00 Build 0)  -->
<svg version="1.1" id="Layer_1" xmlns="http://www.w3.org/2000/svg" xmlns:xlink="http://www.w3.org/1999/xlink" x="0px" y="0px"
	 viewBox="0 0 1024 400" style="enable-background:new 0 0 1024 400;" xml:space="preserve">
<style type="text/css">
	.st0{fill:#255946;}
	.st1{fill:#F7C35F;}
</style>
<g>
	<g>
		<path class="st0" d="M546.35,218.23c-9.37,0.65-9.37,0.65-10.58-7.64c0-0.38,0-0.78-0.14-1.23c-0.56-3.06,0.69-7.02-1.67-9
			c-2.07-1.73-5.68-0.22-8.64-0.37c-2.96-0.15-5.54,0.09-8.28-0.19c-2.74-0.27-3.46,0.86-3.7,3.27c-0.32,3.7-0.78,7.41-1.39,11.11
			c-0.7,4.23-0.8,4.26-5.31,4.26c-1.33,0-2.74,0.42-4.37-0.65c0.54-3.7,1.11-7.53,1.65-11.37c0.22-1.57,0.38-3.14,0.58-4.7
			c0.28-2.28-0.42-3.78-2.94-4.21c-2.11-0.38-4.19-0.88-6.25-1.49c-40.01-11.68-68.79-46.66-72.55-88.17
			c-0.27-2.94-0.53-5.89-0.6-8.85c-0.1-5.17,0-5.25,5.26-4.35c5.66,0.84,11.23,2.2,16.64,4.07c40.64,15.04,63.68,44.07,69.13,87.08
			c0.56,4.49,0.46,4.49,4.69,4.94c4.1,0.42,8.24,0.42,12.34,0c4.43-0.44,4.55-0.42,4.94-4.74c0.46-6.9,1.77-13.71,3.91-20.28
			c13.48-39.9,41.09-63.51,82.38-71.1c4.85-0.9,5.02-0.62,5,3.56c0,44.94-29.43,84.58-72.45,97.58c-1.52,0.46-3.04,0.89-4.55,1.23
			c-5.97,1.56-6.04,1.57-5.18,7.94C544.84,209.24,545.61,213.49,546.35,218.23z M431.38,105.64c0.81,4.7,1.23,9.22,2.39,13.58
			c9.02,34.92,30.86,57.67,65.3,68.35c5.17,1.6,5.43,0.72,4.85-4.09c-4.32-36.01-30.86-67.15-66.07-77.14
			C436.03,105.82,434.24,104.67,431.38,105.64z M616.65,105.21c-45.34,8.37-72.55,52.33-71.74,83.03
			C581.12,182.05,614.61,146.95,616.65,105.21z"/>
		<path class="st1" d="M524.29,19.49c9.88,13.96,20.21,26.7,28.39,40.9c3.94,6.42,6.75,13.46,8.32,20.82
			c3.59,19.06-8.99,38.65-27.96,43.48c-19.98,4.87-40.13-7.39-45-27.37c-1.61-6.59-1.38-13.5,0.66-19.98
			c2.07-6.8,5.05-13.28,8.86-19.28c3.7-5.85,7.41-11.63,11.38-17.28C513.79,33.83,518.84,27.04,524.29,19.49z M524.29,33.41
			c-9.37,13.05-18.8,25.19-25.17,39.3c-1.46,3.23-2.58,6.6-3.36,10.06c-2.54,11.46,2.77,23.69,12.81,30.19
			c9.93,6.35,22.73,5.99,32.3-0.89c11.05-8.07,15.34-22.53,10.48-35.32c-5.83-16.18-17.02-29.02-27.01-43.35H524.29z"/>
		<path class="st1" d="M513.63,109.61c-4.58-2.31-8.24-6.1-10.38-10.75c-0.59-1.23-0.77-2.31,0.69-2.86c1.23-0.47,2.8-1.39,3.7,0.19
			c1.81,3.2,4.23,6.02,7.11,8.3C516.97,106.26,514.84,107.88,513.63,109.61z"/>
	</g>
	<g>
		<path class="st0" d="M333.96,237.76v56.37h-9.25v-24.66H298.2v24.66h-9.25v-56.37h9.25v24.17h26.52v-24.17H333.96z"/>
		<path class="st0" d="M386.36,249.44l-27.41,65.69h-9.57l9.08-21.74l-17.6-43.96h10.3l12.57,34.06l13.06-34.06H386.36z"/>
		<path class="st0" d="M393.05,259.66c1.87-3.46,4.41-6.15,7.62-8.07c3.22-1.92,6.8-2.88,10.75-2.88c2.92,0,5.8,0.64,8.64,1.91
			c2.84,1.27,5.1,2.96,6.77,5.07v-21.57h9.33v60.02h-9.33v-6.73c-1.51,2.16-3.61,3.95-6.29,5.35s-5.75,2.11-9.21,2.11
			c-3.89,0-7.45-0.99-10.67-2.96c-3.22-1.97-5.76-4.73-7.62-8.27c-1.87-3.54-2.8-7.55-2.8-12.04
			C390.25,267.09,391.18,263.12,393.05,259.66z M424.92,263.71c-1.27-2.27-2.93-4-4.99-5.19c-2.06-1.19-4.27-1.78-6.65-1.78
			c-2.38,0-4.6,0.58-6.65,1.74c-2.06,1.16-3.72,2.87-4.99,5.11c-1.27,2.24-1.91,4.91-1.91,7.99c0,3.08,0.63,5.79,1.91,8.11
			c1.27,2.33,2.95,4.1,5.03,5.31c2.08,1.22,4.28,1.83,6.61,1.83c2.38,0,4.6-0.59,6.65-1.78c2.05-1.19,3.72-2.93,4.99-5.23
			c1.27-2.3,1.91-4.99,1.91-8.07C426.82,268.66,426.19,265.98,424.92,263.71z"/>
		<path class="st0" d="M462.95,250.62c2.24-1.27,4.91-1.91,7.99-1.91v9.57h-2.35c-3.62,0-6.37,0.92-8.23,2.76
			c-1.87,1.84-2.8,5.03-2.8,9.57v23.52h-9.25v-44.69h9.25v6.49C458.91,253.66,460.71,251.89,462.95,250.62z"/>
		<path class="st0" d="M487.41,291.98c-3.41-1.92-6.08-4.62-8.03-8.11c-1.95-3.49-2.92-7.53-2.92-12.12c0-4.54,1-8.57,3-12.08
			c2-3.51,4.73-6.22,8.19-8.11c3.46-1.89,7.33-2.84,11.6-2.84s8.14,0.95,11.6,2.84c3.46,1.89,6.19,4.6,8.19,8.11
			c2,3.52,3,7.54,3,12.08c0,4.54-1.03,8.57-3.08,12.08s-4.85,6.23-8.39,8.15c-3.54,1.92-7.45,2.88-11.72,2.88
			C494.62,294.86,490.81,293.9,487.41,291.98z M505.53,285.13c2.08-1.14,3.77-2.84,5.07-5.11c1.3-2.27,1.95-5.03,1.95-8.27
			s-0.62-5.99-1.87-8.23c-1.24-2.24-2.89-3.93-4.95-5.07c-2.05-1.14-4.27-1.7-6.65-1.7c-2.38,0-4.58,0.57-6.61,1.7
			c-2.03,1.13-3.64,2.83-4.83,5.07c-1.19,2.24-1.79,4.99-1.79,8.23c0,4.81,1.23,8.53,3.69,11.15c2.46,2.62,5.56,3.93,9.29,3.93
			C501.22,286.83,503.45,286.26,505.53,285.13z"/>
		<path class="st0" d="M549.94,256.98h-8.27v37.14h-9.33v-37.14h-5.27v-7.54h5.27v-3.16c0-5.14,1.37-8.88,4.1-11.23
			c2.73-2.35,7.02-3.53,12.85-3.53v7.7c-2.81,0-4.78,0.53-5.92,1.58c-1.14,1.05-1.7,2.88-1.7,5.47v3.16h8.27V256.98z"/>
		<path class="st0" d="M557.84,259.66c1.87-3.46,4.41-6.15,7.62-8.07c3.22-1.92,6.77-2.88,10.66-2.88c3.51,0,6.58,0.69,9.21,2.07
			c2.62,1.38,4.72,3.1,6.29,5.15v-6.49h9.33v44.69h-9.33v-6.65c-1.57,2.11-3.7,3.87-6.41,5.27c-2.7,1.41-5.79,2.11-9.25,2.11
			c-3.84,0-7.35-0.99-10.54-2.96c-3.19-1.97-5.72-4.73-7.58-8.27c-1.87-3.54-2.8-7.55-2.8-12.04
			C555.04,267.09,555.98,263.12,557.84,259.66z M589.71,263.71c-1.27-2.27-2.93-4-4.99-5.19c-2.06-1.19-4.27-1.78-6.65-1.78
			c-2.38,0-4.6,0.58-6.65,1.74c-2.06,1.16-3.72,2.87-4.99,5.11c-1.27,2.24-1.91,4.91-1.91,7.99c0,3.08,0.64,5.79,1.91,8.11
			c1.27,2.33,2.95,4.1,5.03,5.31c2.08,1.22,4.28,1.83,6.61,1.83c2.38,0,4.59-0.59,6.65-1.78c2.05-1.19,3.72-2.93,4.99-5.23
			c1.27-2.3,1.91-4.99,1.91-8.07C591.62,268.66,590.98,265.98,589.71,263.71z"/>
		<path class="st0" d="M627.75,250.62c2.24-1.27,4.91-1.91,7.99-1.91v9.57h-2.35c-3.62,0-6.37,0.92-8.23,2.76
			c-1.87,1.84-2.8,5.03-2.8,9.57v23.52h-9.25v-44.69h9.25v6.49C623.71,253.66,625.51,251.89,627.75,250.62z"/>
		<path class="st0" d="M707.8,250.9c2.78,1.46,4.97,3.62,6.57,6.49c1.59,2.87,2.39,6.33,2.39,10.38v26.36h-9.16v-24.98
			c0-4-1-7.07-3-9.21c-2-2.13-4.73-3.2-8.19-3.2c-3.46,0-6.2,1.07-8.23,3.2c-2.03,2.14-3.04,5.2-3.04,9.21v24.98h-9.16v-24.98
			c0-4-1-7.07-3-9.21c-2-2.13-4.73-3.2-8.19-3.2c-3.46,0-6.2,1.07-8.23,3.2c-2.03,2.14-3.04,5.2-3.04,9.21v24.98h-9.25v-44.69h9.25
			v5.11c1.51-1.84,3.43-3.27,5.76-4.3c2.32-1.03,4.81-1.54,7.46-1.54c3.57,0,6.76,0.76,9.57,2.27c2.81,1.51,4.97,3.7,6.49,6.57
			c1.35-2.7,3.46-4.85,6.33-6.45c2.87-1.59,5.95-2.39,9.25-2.39C701.86,248.71,705.01,249.44,707.8,250.9z"/>
		<path class="st0" d="M735.29,292.95c-2.79-1.27-4.99-3-6.61-5.19c-1.62-2.19-2.49-4.64-2.6-7.34h9.57
			c0.16,1.89,1.07,3.47,2.72,4.74c1.65,1.27,3.72,1.91,6.2,1.91c2.6,0,4.61-0.5,6.04-1.5c1.43-1,2.15-2.28,2.15-3.85
			c0-1.68-0.8-2.92-2.39-3.73c-1.59-0.81-4.12-1.7-7.58-2.68c-3.35-0.92-6.08-1.81-8.19-2.68c-2.11-0.86-3.93-2.19-5.47-3.97
			c-1.54-1.78-2.31-4.14-2.31-7.06c0-2.38,0.7-4.55,2.11-6.53c1.41-1.97,3.42-3.53,6.04-4.66c2.62-1.14,5.64-1.7,9.04-1.7
			c5.08,0,9.18,1.29,12.29,3.85c3.11,2.57,4.77,6.07,4.99,10.5h-9.25c-0.16-2-0.97-3.59-2.43-4.78s-3.43-1.79-5.92-1.79
			c-2.43,0-4.3,0.46-5.6,1.38c-1.3,0.92-1.95,2.14-1.95,3.65c0,1.19,0.43,2.19,1.3,3c0.86,0.81,1.92,1.45,3.16,1.91
			c1.24,0.46,3.08,1.04,5.51,1.74c3.24,0.87,5.91,1.74,7.99,2.64c2.08,0.89,3.88,2.2,5.39,3.93c1.51,1.73,2.3,4.03,2.35,6.89
			c0,2.54-0.7,4.81-2.11,6.81c-1.41,2-3.39,3.57-5.96,4.7c-2.57,1.14-5.58,1.7-9.04,1.7C741.22,294.86,738.07,294.22,735.29,292.95z
			"/>
	</g>
	<g>
		<path class="st0" d="M377.4,328.03v2.58h-6.63v21.73h-3.17v-21.73h-6.66v-2.58H377.4z"/>
		<path class="st0" d="M398.64,343.97h-15.28c0.12,1.88,0.76,3.35,1.94,4.41c1.17,1.06,2.6,1.59,4.27,1.59
			c1.37,0,2.52-0.32,3.44-0.96c0.92-0.64,1.56-1.49,1.94-2.56h3.42c-0.51,1.84-1.53,3.33-3.07,4.48c-1.53,1.15-3.44,1.73-5.72,1.73
			c-1.81,0-3.44-0.41-4.87-1.22c-1.43-0.81-2.55-1.97-3.37-3.47c-0.81-1.5-1.22-3.24-1.22-5.21c0-1.98,0.4-3.71,1.19-5.2
			c0.79-1.49,1.9-2.63,3.33-3.44c1.43-0.8,3.07-1.2,4.94-1.2c1.81,0,3.42,0.4,4.81,1.19c1.4,0.79,2.47,1.88,3.23,3.26
			c0.76,1.38,1.13,2.95,1.13,4.69C398.74,342.65,398.71,343.29,398.64,343.97z M394.66,338.27c-0.54-0.87-1.26-1.54-2.18-1.99
			c-0.92-0.45-1.94-0.68-3.05-0.68c-1.6,0-2.97,0.51-4.1,1.54c-1.13,1.02-1.77,2.44-1.94,4.25h12.07
			C395.47,340.18,395.2,339.14,394.66,338.27z"/>
		<path class="st0" d="M402.93,337.57c0.79-1.48,1.89-2.62,3.3-3.44c1.41-0.81,3.02-1.22,4.83-1.22c2.35,0,4.28,0.57,5.81,1.71
			c1.52,1.14,2.53,2.72,3.02,4.74h-3.42c-0.33-1.16-0.96-2.08-1.9-2.76c-0.94-0.67-2.11-1.01-3.51-1.01c-1.81,0-3.28,0.62-4.39,1.87
			c-1.12,1.24-1.67,3.01-1.67,5.28c0,2.3,0.56,4.08,1.67,5.34c1.12,1.25,2.58,1.88,4.39,1.88c1.4,0,2.56-0.33,3.49-0.98
			c0.93-0.65,1.57-1.58,1.92-2.79h3.42c-0.51,1.95-1.53,3.52-3.07,4.69s-3.45,1.76-5.75,1.76c-1.81,0-3.42-0.41-4.83-1.22
			c-1.41-0.81-2.51-1.96-3.3-3.45c-0.79-1.49-1.19-3.23-1.19-5.23C401.74,340.77,402.14,339.04,402.93,337.57z"/>
		<path class="st0" d="M437.49,333.8c1.16,0.62,2.08,1.54,2.74,2.77c0.66,1.23,0.99,2.73,0.99,4.5v11.27h-3.14v-10.81
			c0-1.91-0.48-3.37-1.43-4.38c-0.95-1.01-2.26-1.52-3.91-1.52c-1.67,0-3.01,0.52-3.99,1.57c-0.99,1.05-1.48,2.57-1.48,4.57v10.57
			h-3.17v-25.81h3.17v9.42c0.63-0.98,1.49-1.73,2.6-2.27s2.34-0.8,3.71-0.8C435.03,332.88,436.33,333.18,437.49,333.8z"/>
		<path class="st0" d="M470.11,346.93h-10.6l-1.95,5.41h-3.35l8.79-24.17h3.66l8.75,24.17h-3.35L470.11,346.93z M469.2,344.35
			l-4.4-12.28l-4.39,12.28H469.2z"/>
		<path class="st0" d="M491.47,333.99c1.24,0.72,2.17,1.63,2.77,2.72v-3.49h3.21v19.53c0,1.74-0.37,3.3-1.12,4.66
			s-1.81,2.42-3.19,3.19c-1.38,0.77-2.99,1.15-4.83,1.15c-2.51,0-4.6-0.59-6.28-1.78c-1.67-1.19-2.66-2.8-2.96-4.85h3.14
			c0.35,1.16,1.07,2.1,2.16,2.81s2.41,1.06,3.94,1.06c1.74,0,3.17-0.55,4.27-1.64c1.1-1.09,1.66-2.63,1.66-4.6v-4.01
			c-0.63,1.12-1.56,2.05-2.79,2.79c-1.23,0.74-2.67,1.12-4.33,1.12c-1.7,0-3.24-0.42-4.62-1.25c-1.38-0.84-2.47-2.01-3.26-3.52
			c-0.79-1.51-1.19-3.23-1.19-5.16c0-1.95,0.39-3.67,1.19-5.14c0.79-1.48,1.88-2.62,3.26-3.44c1.38-0.81,2.92-1.22,4.62-1.22
			C488.78,332.91,490.23,333.27,491.47,333.99z M493.37,338.98c-0.58-1.07-1.37-1.89-2.35-2.46s-2.08-0.85-3.26-0.85
			s-2.27,0.28-3.24,0.84c-0.98,0.56-1.76,1.37-2.34,2.44s-0.87,2.33-0.87,3.77c0,1.46,0.29,2.74,0.87,3.82s1.36,1.91,2.34,2.48
			c0.98,0.57,2.06,0.85,3.24,0.85s2.27-0.28,3.26-0.85c0.99-0.57,1.77-1.4,2.35-2.48s0.87-2.34,0.87-3.78
			C494.24,341.31,493.95,340.05,493.37,338.98z"/>
		<path class="st0" d="M508.39,333.78c1.03-0.6,2.3-0.91,3.78-0.91v3.28h-0.84c-3.56,0-5.34,1.93-5.34,5.79v10.39h-3.17v-19.11H506
			v3.1C506.55,335.24,507.35,334.39,508.39,333.78z"/>
		<path class="st0" d="M515.94,329.49c-0.42-0.42-0.63-0.93-0.63-1.54c0-0.6,0.21-1.12,0.63-1.53c0.42-0.42,0.93-0.63,1.54-0.63
			c0.58,0,1.08,0.21,1.48,0.63c0.41,0.42,0.61,0.93,0.61,1.53c0,0.61-0.2,1.12-0.61,1.54c-0.41,0.42-0.9,0.63-1.48,0.63
			C516.87,330.12,516.36,329.91,515.94,329.49z M519.01,333.23v19.11h-3.17v-19.11H519.01z"/>
		<path class="st0" d="M537.13,351.73c-1.27-0.57-2.26-1.36-2.98-2.37c-0.72-1.01-1.09-2.18-1.12-3.5h3.38
			c0.12,1.14,0.59,2.1,1.41,2.88c0.83,0.78,2.03,1.17,3.61,1.17c1.51,0,2.7-0.38,3.58-1.13c0.87-0.75,1.31-1.73,1.31-2.91
			c0-0.93-0.26-1.69-0.77-2.27c-0.51-0.58-1.15-1.02-1.92-1.33c-0.77-0.3-1.8-0.63-3.1-0.98c-1.6-0.42-2.89-0.84-3.85-1.26
			c-0.96-0.42-1.79-1.08-2.48-1.97c-0.69-0.89-1.03-2.1-1.03-3.61c0-1.33,0.34-2.5,1.01-3.52c0.67-1.02,1.62-1.81,2.84-2.37
			c1.22-0.56,2.62-0.84,4.2-0.84c2.28,0,4.14,0.57,5.6,1.71c1.45,1.14,2.27,2.65,2.46,4.54h-3.49c-0.12-0.93-0.61-1.75-1.46-2.46
			c-0.86-0.71-2-1.06-3.42-1.06c-1.33,0-2.41,0.34-3.24,1.03s-1.26,1.65-1.26,2.88c0,0.88,0.25,1.6,0.75,2.16
			c0.5,0.56,1.12,0.98,1.85,1.27s1.76,0.62,3.09,0.99c1.6,0.44,2.89,0.88,3.87,1.31c0.98,0.43,1.81,1.09,2.51,1.99
			c0.7,0.89,1.05,2.11,1.05,3.64c0,1.19-0.31,2.3-0.94,3.35c-0.63,1.05-1.56,1.9-2.79,2.55c-1.23,0.65-2.69,0.98-4.36,0.98
			C539.83,352.58,538.39,352.3,537.13,351.73z"/>
		<path class="st0" d="M557.67,351.43c-1.45-0.81-2.59-1.97-3.42-3.47c-0.83-1.5-1.24-3.24-1.24-5.21c0-1.95,0.42-3.68,1.27-5.18
			s2.01-2.65,3.47-3.45c1.46-0.8,3.1-1.2,4.92-1.2s3.45,0.4,4.92,1.2c1.46,0.8,2.62,1.95,3.47,3.44c0.85,1.49,1.27,3.22,1.27,5.2
			c0,1.98-0.44,3.71-1.31,5.21c-0.87,1.5-2.05,2.66-3.54,3.47c-1.49,0.81-3.14,1.22-4.95,1.22
			C560.74,352.65,559.12,352.25,557.67,351.43z M565.74,349.06c1-0.54,1.81-1.34,2.42-2.41c0.62-1.07,0.92-2.37,0.92-3.91
			c0-1.53-0.3-2.84-0.91-3.91s-1.39-1.87-2.37-2.39c-0.98-0.52-2.04-0.78-3.17-0.78c-1.16,0-2.23,0.26-3.19,0.78
			c-0.96,0.52-1.74,1.32-2.32,2.39s-0.87,2.37-0.87,3.91c0,1.56,0.29,2.87,0.85,3.94c0.57,1.07,1.33,1.87,2.29,2.39
			c0.95,0.52,2,0.78,3.14,0.78S564.74,349.6,565.74,349.06z"/>
		<path class="st0" d="M579.69,326.53v25.81h-3.17v-25.81H579.69z"/>
		<path class="st0" d="M602.05,333.23v19.11h-3.17v-2.83c-0.6,0.98-1.45,1.74-2.53,2.28c-1.08,0.55-2.27,0.82-3.58,0.82
			c-1.49,0-2.83-0.31-4.01-0.92c-1.19-0.62-2.12-1.54-2.81-2.77s-1.03-2.73-1.03-4.5v-11.2h3.14V344c0,1.88,0.48,3.33,1.43,4.34
			c0.95,1.01,2.26,1.52,3.91,1.52c1.7,0,3.03-0.52,4.01-1.57c0.98-1.05,1.46-2.57,1.46-4.57v-10.5H602.05z"/>
		<path class="st0" d="M611.29,335.84v11.27c0,0.93,0.2,1.59,0.59,1.97c0.39,0.38,1.08,0.58,2.06,0.58h2.34v2.69h-2.86
			c-1.77,0-3.09-0.41-3.98-1.22c-0.88-0.81-1.33-2.15-1.33-4.01v-11.27h-2.48v-2.62h2.48v-4.81h3.17v4.81h4.99v2.62H611.29z"/>
		<path class="st0" d="M620.22,329.49c-0.42-0.42-0.63-0.93-0.63-1.54c0-0.6,0.21-1.12,0.63-1.53c0.42-0.42,0.93-0.63,1.54-0.63
			c0.58,0,1.08,0.21,1.48,0.63c0.41,0.42,0.61,0.93,0.61,1.53c0,0.61-0.2,1.12-0.61,1.54c-0.41,0.42-0.9,0.63-1.48,0.63
			C621.15,330.12,620.64,329.91,620.22,329.49z M623.29,333.23v19.11h-3.17v-19.11H623.29z"/>
		<path class="st0" d="M632.17,351.43c-1.45-0.81-2.59-1.97-3.42-3.47c-0.83-1.5-1.24-3.24-1.24-5.21c0-1.95,0.42-3.68,1.27-5.18
			s2.01-2.65,3.47-3.45c1.46-0.8,3.1-1.2,4.92-1.2s3.45,0.4,4.92,1.2c1.46,0.8,2.62,1.95,3.47,3.44c0.85,1.49,1.27,3.22,1.27,5.2
			c0,1.98-0.44,3.71-1.31,5.21c-0.87,1.5-2.05,2.66-3.54,3.47c-1.49,0.81-3.14,1.22-4.95,1.22
			C635.25,352.65,633.62,352.25,632.17,351.43z M640.24,349.06c1-0.54,1.81-1.34,2.42-2.41c0.62-1.07,0.92-2.37,0.92-3.91
			c0-1.53-0.3-2.84-0.91-3.91s-1.39-1.87-2.37-2.39c-0.98-0.52-2.04-0.78-3.17-0.78c-1.16,0-2.23,0.26-3.19,0.78
			c-0.96,0.52-1.74,1.32-2.32,2.39s-0.87,2.37-0.87,3.91c0,1.56,0.29,2.87,0.85,3.94c0.57,1.07,1.33,1.87,2.29,2.39
			c0.95,0.52,2,0.78,3.14,0.78S639.24,349.6,640.24,349.06z"/>
		<path class="st0" d="M665.98,334.99c1.44,1.41,2.16,3.44,2.16,6.09v11.27h-3.14v-10.81c0-1.91-0.48-3.37-1.43-4.38
			c-0.95-1.01-2.26-1.52-3.91-1.52c-1.67,0-3.01,0.52-3.99,1.57c-0.99,1.05-1.48,2.57-1.48,4.57v10.57h-3.17v-19.11h3.17v2.72
			c0.63-0.98,1.48-1.73,2.56-2.27c1.08-0.54,2.27-0.8,3.58-0.8C662.66,332.88,664.54,333.58,665.98,334.99z"/>
		<path class="st0" d="M676.17,351.9c-1.16-0.5-2.08-1.2-2.75-2.09c-0.67-0.9-1.05-1.92-1.12-3.09h3.28
			c0.09,0.95,0.54,1.73,1.34,2.34c0.8,0.6,1.85,0.91,3.16,0.91c1.21,0,2.16-0.27,2.86-0.8s1.05-1.21,1.05-2.02
			c0-0.84-0.37-1.46-1.12-1.87c-0.75-0.41-1.9-0.81-3.45-1.2c-1.42-0.37-2.58-0.75-3.47-1.13c-0.9-0.38-1.66-0.95-2.3-1.71
			c-0.64-0.75-0.96-1.75-0.96-2.98c0-0.98,0.29-1.87,0.87-2.69c0.58-0.81,1.41-1.46,2.48-1.94c1.07-0.48,2.29-0.71,3.66-0.71
			c2.12,0,3.83,0.54,5.13,1.6c1.3,1.07,2,2.54,2.09,4.39h-3.17c-0.07-1-0.47-1.8-1.2-2.41s-1.71-0.91-2.95-0.91
			c-1.14,0-2.05,0.24-2.72,0.73c-0.67,0.49-1.01,1.13-1.01,1.92c0,0.63,0.2,1.15,0.61,1.55c0.41,0.41,0.92,0.73,1.53,0.98
			s1.47,0.52,2.56,0.82c1.37,0.37,2.49,0.74,3.35,1.1c0.86,0.36,1.6,0.9,2.21,1.62c0.62,0.72,0.94,1.66,0.96,2.83
			c0,1.05-0.29,1.99-0.87,2.83s-1.4,1.5-2.46,1.97c-1.06,0.48-2.27,0.71-3.64,0.71C678.65,352.65,677.33,352.4,676.17,351.9z"/>
	</g>
</g>
</svg>
