<?xml version="1.0" encoding="utf-8"?>
<!-- Generator: Adobe Illustrator 24.0.0, SVG Export Plug-In . SVG Version: 6.00 Build 0)  -->
<svg version="1.1" id="Layer_1" xmlns="http://www.w3.org/2000/svg" xmlns:xlink="http://www.w3.org/1999/xlink" x="0px" y="0px"
	 viewBox="0 0 1024 400" style="enable-background:new 0 0 1024 400;" xml:space="preserve">
<style type="text/css">
	.st0{fill:#255946;}
	.st1{fill:#A57735;}
</style>
<g>
	<path class="st0" d="M158.42,260.9c-9.08,0.63-9.08,0.63-10.26-7.41c0-0.37,0-0.75-0.13-1.2c-0.54-2.97,0.67-6.81-1.62-8.72
		c-2.01-1.68-5.51-0.22-8.38-0.36s-5.37,0.08-8.03-0.18c-2.66-0.26-3.35,0.84-3.59,3.17c-0.31,3.59-0.75,7.18-1.35,10.77
		c-0.68,4.11-0.78,4.13-5.15,4.13c-1.29,0-2.66,0.41-4.24-0.63c0.53-3.59,1.08-7.3,1.6-11.02c0.22-1.52,0.37-3.04,0.56-4.56
		c0.28-2.21-0.41-3.66-2.85-4.08c-2.04-0.37-4.07-0.86-6.06-1.45c-38.79-11.32-66.7-45.24-70.34-85.49
		c-0.26-2.85-0.51-5.71-0.59-8.58c-0.1-5.01,0-5.09,5.1-4.21c5.49,0.81,10.89,2.13,16.13,3.95c39.4,14.59,61.74,42.73,67.02,84.42
		c0.54,4.36,0.44,4.36,4.55,4.79c3.98,0.4,7.99,0.4,11.97,0c4.3-0.43,4.42-0.41,4.79-4.6c0.44-6.69,1.72-13.29,3.79-19.66
		c13.07-38.68,39.84-61.58,79.88-68.94c4.7-0.87,4.87-0.6,4.85,3.45c0,43.57-28.53,82-70.24,94.61c-1.47,0.44-2.94,0.86-4.42,1.2
		c-5.79,1.51-5.85,1.52-5.03,7.7C156.96,252.18,157.7,256.31,158.42,260.9z M46.95,151.74c0.79,4.56,1.2,8.94,2.32,13.16
		c8.75,33.86,29.92,55.92,63.31,66.27c5.01,1.56,5.27,0.69,4.7-3.96c-4.19-34.91-29.92-65.11-64.05-74.79
		C51.46,151.91,49.72,150.8,46.95,151.74z M226.58,151.32c-43.96,8.11-70.34,50.73-69.56,80.5
		C192.13,225.83,224.6,191.79,226.58,151.32z"/>
	<path class="st1" d="M137.03,68.22c9.57,13.54,19.59,25.89,27.53,39.65c3.82,6.22,6.55,13.05,8.07,20.19
		c3.48,18.48-8.71,37.47-27.11,42.15c-19.38,4.72-38.91-7.16-43.63-26.54c-1.56-6.39-1.34-13.09,0.64-19.37
		c2.01-6.59,4.9-12.88,8.59-18.69c3.59-5.67,7.18-11.27,11.03-16.76C126.85,82.11,131.74,75.53,137.03,68.22z M137.03,81.71
		c-9.08,12.65-18.23,24.43-24.4,38.11c-1.41,3.13-2.5,6.4-3.26,9.75c-2.47,11.11,2.68,22.97,12.42,29.27
		c9.63,6.15,22.04,5.81,31.32-0.86c10.71-7.82,14.87-21.84,10.16-34.24c-5.65-15.69-16.5-28.14-26.19-42.03H137.03z"/>
	<path class="st1" d="M126.69,155.58c-4.44-2.24-7.99-5.91-10.07-10.42c-0.57-1.2-0.74-2.24,0.67-2.78c1.2-0.45,2.72-1.35,3.59,0.18
		c1.76,3.1,4.1,5.83,6.89,8.04C129.93,152.34,127.86,153.91,126.69,155.58z"/>
	<g>
		<path class="st0" d="M337.14,129.63v84.7h-13.89v-37.05H283.4v37.05H269.5v-84.7h13.89v36.32h39.85v-36.32H337.14z"/>
		<path class="st0" d="M415.87,147.18l-41.19,98.72H360.3l13.65-32.66l-26.45-66.06h15.48l18.89,51.19l19.62-51.19H415.87z"/>
		<path class="st0" d="M425.93,162.53c2.8-5.2,6.62-9.24,11.46-12.13c4.83-2.88,10.22-4.33,16.15-4.33c4.39,0,8.71,0.96,12.98,2.86
			c4.27,1.91,7.66,4.45,10.18,7.62v-32.42h14.02v90.19h-14.02v-10.12c-2.28,3.25-5.42,5.93-9.45,8.04
			c-4.02,2.11-8.63,3.17-13.83,3.17c-5.85,0-11.19-1.48-16.03-4.45c-4.83-2.96-8.65-7.11-11.46-12.43
			c-2.8-5.32-4.21-11.35-4.21-18.1C421.72,173.7,423.12,167.73,425.93,162.53z M473.82,168.63c-1.91-3.41-4.41-6.01-7.5-7.8
			c-3.09-1.79-6.42-2.68-9.99-2.68c-3.58,0-6.91,0.87-9.99,2.62c-3.09,1.75-5.59,4.31-7.5,7.68c-1.91,3.37-2.86,7.37-2.86,12
			s0.95,8.7,2.86,12.19c1.91,3.49,4.43,6.15,7.56,7.98c3.13,1.83,6.44,2.74,9.93,2.74c3.57,0,6.9-0.89,9.99-2.68
			c3.09-1.79,5.59-4.41,7.5-7.86c1.91-3.45,2.86-7.5,2.86-12.13C476.69,176.06,475.73,172.04,473.82,168.63z"/>
		<path class="st0" d="M530.98,148.94c3.37-1.91,7.37-2.86,12-2.86v14.38h-3.53c-5.45,0-9.57,1.38-12.37,4.14
			c-2.8,2.76-4.21,7.56-4.21,14.38v35.34h-13.89v-67.15h13.89v9.75C524.91,153.51,527.61,150.85,530.98,148.94z"/>
		<path class="st0" d="M567.73,211.1c-5.12-2.88-9.14-6.95-12.07-12.19c-2.92-5.24-4.39-11.31-4.39-18.22
			c0-6.83,1.5-12.88,4.51-18.16c3-5.28,7.11-9.34,12.31-12.19c5.2-2.84,11.01-4.27,17.43-4.27c6.42,0,12.23,1.42,17.43,4.27
			c5.2,2.85,9.3,6.91,12.31,12.19c3,5.28,4.51,11.33,4.51,18.16c0,6.82-1.54,12.88-4.63,18.16c-3.09,5.28-7.29,9.36-12.61,12.25
			c-5.32,2.88-11.19,4.33-17.61,4.33C578.58,215.43,572.85,213.98,567.73,211.1z M594.97,200.8c3.13-1.71,5.67-4.27,7.62-7.68
			s2.92-7.56,2.92-12.43c0-4.88-0.93-9-2.8-12.37c-1.87-3.37-4.35-5.91-7.43-7.62c-3.09-1.71-6.42-2.56-9.99-2.56
			c-3.58,0-6.89,0.85-9.93,2.56c-3.05,1.71-5.47,4.25-7.25,7.62c-1.79,3.37-2.68,7.5-2.68,12.37c0,7.23,1.85,12.82,5.55,16.76
			c3.7,3.94,8.35,5.91,13.96,5.91C588.49,203.36,591.84,202.51,594.97,200.8z"/>
		<path class="st0" d="M661.69,158.51h-12.43v55.82h-14.02v-55.82h-7.92v-11.33h7.92v-4.75c0-7.72,2.05-13.35,6.16-16.88
			c4.1-3.53,10.54-5.3,19.32-5.3v11.58c-4.23,0-7.19,0.79-8.9,2.38c-1.71,1.58-2.56,4.33-2.56,8.23v4.75h12.43V158.51z"/>
		<path class="st0" d="M673.57,162.53c2.8-5.2,6.62-9.24,11.46-12.13c4.83-2.88,10.18-4.33,16.03-4.33c5.28,0,9.89,1.04,13.83,3.11
			c3.94,2.07,7.09,4.65,9.45,7.74v-9.75h14.02v67.15h-14.02v-9.99c-2.36,3.17-5.57,5.81-9.63,7.92c-4.06,2.11-8.7,3.17-13.89,3.17
			c-5.77,0-11.05-1.48-15.84-4.45c-4.79-2.96-8.59-7.11-11.4-12.43c-2.8-5.32-4.2-11.35-4.2-18.1
			C669.37,173.7,670.77,167.73,673.57,162.53z M721.47,168.63c-1.91-3.41-4.41-6.01-7.5-7.8c-3.09-1.79-6.42-2.68-9.99-2.68
			c-3.58,0-6.91,0.87-9.99,2.62c-3.09,1.75-5.59,4.31-7.5,7.68c-1.91,3.37-2.86,7.37-2.86,12s0.95,8.7,2.86,12.19
			c1.91,3.49,4.43,6.15,7.56,7.98c3.13,1.83,6.44,2.74,9.93,2.74c3.58,0,6.91-0.89,9.99-2.68c3.09-1.79,5.58-4.41,7.5-7.86
			c1.91-3.45,2.86-7.5,2.86-12.13C724.34,176.06,723.38,172.04,721.47,168.63z"/>
		<path class="st0" d="M778.63,148.94c3.37-1.91,7.37-2.86,12-2.86v14.38h-3.53c-5.45,0-9.57,1.38-12.37,4.14
			c-2.8,2.76-4.2,7.56-4.2,14.38v35.34h-13.89v-67.15h13.89v9.75C772.56,153.51,775.26,150.85,778.63,148.94z"/>
		<path class="st0" d="M898.92,149.37c4.18,2.19,7.47,5.44,9.87,9.75c2.4,4.31,3.6,9.51,3.6,15.6v39.61h-13.77v-37.54
			c0-6.01-1.5-10.62-4.51-13.83c-3.01-3.21-7.11-4.81-12.31-4.81c-5.2,0-9.32,1.61-12.37,4.81c-3.05,3.21-4.57,7.82-4.57,13.83
			v37.54h-13.77v-37.54c0-6.01-1.5-10.62-4.51-13.83c-3.01-3.21-7.11-4.81-12.31-4.81c-5.2,0-9.32,1.61-12.37,4.81
			c-3.05,3.21-4.57,7.82-4.57,13.83v37.54h-13.89v-67.15h13.89v7.68c2.27-2.76,5.16-4.92,8.65-6.46c3.49-1.54,7.23-2.32,11.21-2.32
			c5.36,0,10.16,1.14,14.38,3.41c4.22,2.28,7.47,5.57,9.75,9.87c2.03-4.06,5.2-7.29,9.51-9.69c4.31-2.4,8.94-3.6,13.89-3.6
			C890,146.08,894.74,147.18,898.92,149.37z"/>
		<path class="st0" d="M940.24,212.56c-4.19-1.91-7.5-4.51-9.93-7.8c-2.44-3.29-3.74-6.97-3.9-11.03h14.38
			c0.24,2.85,1.6,5.22,4.08,7.13c2.48,1.91,5.58,2.86,9.32,2.86c3.9,0,6.93-0.75,9.08-2.25c2.15-1.5,3.23-3.43,3.23-5.79
			c0-2.52-1.2-4.39-3.6-5.61c-2.4-1.22-6.2-2.56-11.4-4.02c-5.04-1.38-9.14-2.72-12.31-4.02c-3.17-1.3-5.91-3.29-8.23-5.97
			c-2.32-2.68-3.47-6.22-3.47-10.6c0-3.57,1.06-6.84,3.17-9.81c2.11-2.96,5.14-5.3,9.08-7.01c3.94-1.71,8.47-2.56,13.59-2.56
			c7.64,0,13.79,1.93,18.46,5.79c4.67,3.86,7.17,9.12,7.5,15.78H965.4c-0.24-3-1.46-5.4-3.66-7.19c-2.19-1.79-5.16-2.68-8.9-2.68
			c-3.66,0-6.46,0.69-8.41,2.07c-1.95,1.38-2.93,3.21-2.93,5.48c0,1.79,0.65,3.29,1.95,4.51c1.3,1.22,2.88,2.17,4.75,2.86
			c1.87,0.69,4.63,1.56,8.29,2.62c4.88,1.3,8.88,2.62,12,3.96c3.13,1.34,5.83,3.31,8.1,5.91c2.27,2.6,3.45,6.05,3.54,10.36
			c0,3.82-1.06,7.23-3.17,10.24c-2.11,3.01-5.1,5.36-8.96,7.07c-3.86,1.71-8.39,2.56-13.59,2.56
			C949.15,215.43,944.42,214.47,940.24,212.56z"/>
	</g>
	<g>
		<path class="st1" d="M394.53,293.68h-15.93l-2.94,8.12h-5.03l13.21-36.32h5.5l13.16,36.32h-5.03L394.53,293.68z M393.16,289.8
			l-6.6-18.45l-6.6,18.45H393.16z"/>
		<path class="st1" d="M426.63,274.23c1.87,1.08,3.26,2.45,4.17,4.09v-5.24h4.82v29.35c0,2.62-0.56,4.95-1.68,7
			c-1.12,2.04-2.72,3.64-4.8,4.8c-2.08,1.15-4.5,1.73-7.26,1.73c-3.77,0-6.92-0.89-9.43-2.67c-2.52-1.78-4-4.21-4.46-7.29h4.72
			c0.52,1.75,1.61,3.15,3.25,4.22c1.64,1.07,3.62,1.6,5.92,1.6c2.62,0,4.76-0.82,6.42-2.46c1.66-1.64,2.49-3.95,2.49-6.92v-6.03
			c-0.94,1.68-2.34,3.08-4.19,4.19c-1.85,1.12-4.02,1.68-6.5,1.68c-2.55,0-4.87-0.63-6.95-1.89c-2.08-1.26-3.71-3.02-4.9-5.29
			c-1.19-2.27-1.78-4.86-1.78-7.76c0-2.93,0.59-5.51,1.78-7.73c1.19-2.22,2.82-3.94,4.9-5.16c2.08-1.22,4.39-1.83,6.95-1.83
			C422.58,272.61,424.76,273.15,426.63,274.23z M429.49,281.73c-0.87-1.61-2.05-2.84-3.54-3.7c-1.49-0.86-3.12-1.28-4.9-1.28
			s-3.41,0.42-4.87,1.26c-1.47,0.84-2.64,2.06-3.51,3.67c-0.87,1.61-1.31,3.49-1.31,5.66c0,2.2,0.44,4.12,1.31,5.74
			c0.87,1.62,2.04,2.87,3.51,3.72c1.47,0.86,3.09,1.28,4.87,1.28s3.42-0.43,4.9-1.28c1.48-0.86,2.66-2.1,3.54-3.72
			c0.87-1.63,1.31-3.52,1.31-5.69C430.8,285.22,430.36,283.33,429.49,281.73z"/>
		<path class="st1" d="M452.05,273.92c1.55-0.91,3.45-1.36,5.69-1.36v4.93h-1.26c-5.35,0-8.02,2.9-8.02,8.7v15.62h-4.77v-28.72h4.77
			v4.67C449.3,276.1,450.5,274.83,452.05,273.92z"/>
		<path class="st1" d="M463.4,267.47c-0.63-0.63-0.94-1.4-0.94-2.31c0-0.91,0.31-1.68,0.94-2.31c0.63-0.63,1.4-0.94,2.31-0.94
			c0.87,0,1.62,0.31,2.23,0.94c0.61,0.63,0.92,1.4,0.92,2.31c0,0.91-0.31,1.68-0.92,2.31c-0.61,0.63-1.35,0.94-2.23,0.94
			C464.79,268.41,464.03,268.1,463.4,267.47z M468.01,273.08v28.72h-4.77v-28.72H468.01z"/>
		<path class="st1" d="M512.61,265.27v3.88h-9.96v32.65h-4.77v-32.65h-10.01v-3.88H512.61z"/>
		<path class="st1" d="M544.53,289.22h-22.96c0.17,2.83,1.14,5.04,2.91,6.63c1.76,1.59,3.91,2.38,6.42,2.38
			c2.06,0,3.78-0.48,5.16-1.44c1.38-0.96,2.35-2.24,2.91-3.85h5.14c-0.77,2.76-2.31,5.01-4.61,6.74c-2.31,1.73-5.17,2.59-8.6,2.59
			c-2.73,0-5.16-0.61-7.31-1.83c-2.15-1.22-3.83-2.96-5.06-5.22c-1.22-2.25-1.83-4.87-1.83-7.84c0-2.97,0.59-5.57,1.78-7.81
			c1.19-2.24,2.86-3.96,5.01-5.16c2.15-1.21,4.62-1.81,7.42-1.81c2.73,0,5.14,0.59,7.23,1.78c2.1,1.19,3.71,2.82,4.85,4.9
			c1.13,2.08,1.7,4.43,1.7,7.05C544.69,287.25,544.64,288.21,544.53,289.22z M538.56,280.65c-0.8-1.31-1.9-2.31-3.28-2.99
			c-1.38-0.68-2.91-1.02-4.59-1.02c-2.41,0-4.46,0.77-6.16,2.31c-1.7,1.54-2.67,3.67-2.91,6.39h18.14
			C539.76,283.53,539.36,281.96,538.56,280.65z"/>
		<path class="st1" d="M550.98,279.6c1.19-2.22,2.84-3.94,4.95-5.16c2.11-1.22,4.53-1.83,7.26-1.83c3.53,0,6.44,0.86,8.73,2.57
			c2.29,1.71,3.8,4.09,4.53,7.13h-5.14c-0.49-1.75-1.44-3.13-2.86-4.14c-1.42-1.01-3.17-1.52-5.27-1.52c-2.73,0-4.93,0.94-6.6,2.8
			c-1.68,1.87-2.52,4.52-2.52,7.94c0,3.46,0.84,6.13,2.52,8.02c1.68,1.89,3.88,2.83,6.6,2.83c2.1,0,3.84-0.49,5.24-1.47
			c1.4-0.98,2.36-2.38,2.88-4.19h5.14c-0.77,2.93-2.31,5.29-4.61,7.05c-2.31,1.76-5.19,2.65-8.65,2.65c-2.73,0-5.15-0.61-7.26-1.83
			c-2.11-1.22-3.77-2.95-4.95-5.19c-1.19-2.24-1.78-4.86-1.78-7.86C549.2,284.42,549.79,281.82,550.98,279.6z"/>
		<path class="st1" d="M602.92,273.94c1.75,0.93,3.12,2.32,4.11,4.17c1,1.85,1.49,4.11,1.49,6.76v16.93h-4.72v-16.25
			c0-2.86-0.72-5.06-2.15-6.58c-1.43-1.52-3.39-2.28-5.87-2.28c-2.52,0-4.52,0.79-6,2.36s-2.23,3.86-2.23,6.87v15.88h-4.77v-38.79
			h4.77v14.15c0.94-1.47,2.25-2.6,3.91-3.41c1.66-0.8,3.52-1.21,5.58-1.21C599.22,272.55,601.18,273.02,602.92,273.94z"/>
		<path class="st1" d="M635.45,300.88c-1.91-0.86-3.4-2.04-4.48-3.56c-1.08-1.52-1.64-3.28-1.68-5.27h5.08
			c0.17,1.71,0.88,3.15,2.12,4.32s3.05,1.76,5.42,1.76c2.27,0,4.06-0.57,5.37-1.7s1.97-2.59,1.97-4.38c0-1.4-0.39-2.53-1.15-3.41
			c-0.77-0.87-1.73-1.54-2.88-1.99s-2.71-0.94-4.67-1.47c-2.41-0.63-4.34-1.26-5.79-1.89c-1.45-0.63-2.69-1.62-3.72-2.96
			c-1.03-1.34-1.55-3.15-1.55-5.42c0-1.99,0.51-3.76,1.52-5.29c1.01-1.54,2.44-2.73,4.27-3.56c1.83-0.84,3.94-1.26,6.32-1.26
			c3.42,0,6.23,0.86,8.41,2.57c2.18,1.71,3.42,3.98,3.7,6.81h-5.24c-0.18-1.4-0.91-2.63-2.2-3.7c-1.29-1.07-3.01-1.6-5.14-1.6
			c-1.99,0-3.62,0.52-4.87,1.55c-1.26,1.03-1.89,2.47-1.89,4.32c0,1.33,0.38,2.41,1.13,3.25c0.75,0.84,1.68,1.48,2.78,1.91
			c1.1,0.44,2.65,0.93,4.64,1.49c2.41,0.66,4.35,1.32,5.82,1.97c1.47,0.65,2.73,1.64,3.77,2.99c1.05,1.35,1.57,3.17,1.57,5.48
			c0,1.78-0.47,3.46-1.42,5.03s-2.34,2.85-4.19,3.83c-1.85,0.98-4.04,1.47-6.55,1.47C639.51,302.17,637.35,301.74,635.45,300.88z"/>
		<path class="st1" d="M666.32,300.44c-2.18-1.22-3.9-2.96-5.14-5.22s-1.86-4.87-1.86-7.84c0-2.94,0.64-5.53,1.91-7.78
			c1.28-2.25,3.01-3.98,5.21-5.19c2.2-1.21,4.67-1.81,7.39-1.81s5.19,0.6,7.39,1.81c2.2,1.21,3.94,2.93,5.22,5.16
			c1.27,2.24,1.91,4.84,1.91,7.81c0,2.97-0.66,5.58-1.97,7.84s-3.08,3.99-5.32,5.22c-2.24,1.22-4.72,1.83-7.44,1.83
			C670.94,302.27,668.5,301.66,666.32,300.44z M678.45,296.87c1.5-0.8,2.72-2.01,3.64-3.62c0.92-1.61,1.39-3.56,1.39-5.87
			s-0.45-4.26-1.36-5.87c-0.91-1.61-2.1-2.8-3.56-3.59s-3.06-1.18-4.77-1.18c-1.75,0-3.35,0.39-4.8,1.18
			c-1.45,0.79-2.61,1.98-3.49,3.59c-0.87,1.61-1.31,3.56-1.31,5.87c0,2.34,0.43,4.32,1.28,5.92c0.86,1.61,2,2.8,3.43,3.59
			c1.43,0.79,3,1.18,4.72,1.18C675.34,298.08,676.95,297.68,678.45,296.87z"/>
		<path class="st1" d="M699.42,263.01v38.79h-4.77v-38.79H699.42z"/>
		<path class="st1" d="M733.02,273.08v28.72h-4.77v-4.25c-0.91,1.47-2.17,2.61-3.8,3.43s-3.42,1.23-5.37,1.23
			c-2.24,0-4.25-0.46-6.03-1.39c-1.78-0.93-3.19-2.31-4.22-4.17c-1.03-1.85-1.55-4.11-1.55-6.76v-16.83H712v16.2
			c0,2.83,0.72,5.01,2.15,6.53c1.43,1.52,3.39,2.28,5.87,2.28c2.55,0,4.56-0.79,6.03-2.36s2.2-3.86,2.2-6.87v-15.78H733.02z"/>
		<path class="st1" d="M746.91,277.01v16.93c0,1.4,0.3,2.38,0.89,2.96c0.59,0.58,1.63,0.86,3.09,0.86h3.51v4.04h-4.3
			c-2.66,0-4.65-0.61-5.97-1.83c-1.33-1.22-1.99-3.23-1.99-6.03v-16.93h-3.72v-3.93h3.72v-7.23h4.77v7.23h7.5v3.93H746.91z"/>
		<path class="st1" d="M760.32,267.47c-0.63-0.63-0.94-1.4-0.94-2.31c0-0.91,0.31-1.68,0.94-2.31s1.4-0.94,2.31-0.94
			c0.87,0,1.62,0.31,2.23,0.94s0.92,1.4,0.92,2.31c0,0.91-0.31,1.68-0.92,2.31s-1.35,0.94-2.23,0.94
			C761.72,268.41,760.95,268.1,760.32,267.47z M764.94,273.08v28.72h-4.77v-28.72H764.94z"/>
		<path class="st1" d="M778.27,300.44c-2.18-1.22-3.9-2.96-5.14-5.22s-1.86-4.87-1.86-7.84c0-2.94,0.64-5.53,1.91-7.78
			c1.28-2.25,3.01-3.98,5.21-5.19c2.2-1.21,4.67-1.81,7.39-1.81s5.19,0.6,7.39,1.81c2.2,1.21,3.94,2.93,5.22,5.16
			c1.27,2.24,1.91,4.84,1.91,7.81c0,2.97-0.66,5.58-1.97,7.84s-3.08,3.99-5.32,5.22c-2.24,1.22-4.72,1.83-7.44,1.83
			C782.9,302.27,780.46,301.66,778.27,300.44z M790.41,296.87c1.5-0.8,2.72-2.01,3.64-3.62c0.92-1.61,1.39-3.56,1.39-5.87
			s-0.45-4.26-1.36-5.87c-0.91-1.61-2.1-2.8-3.56-3.59s-3.06-1.18-4.77-1.18c-1.75,0-3.35,0.39-4.8,1.18
			c-1.45,0.79-2.61,1.98-3.49,3.59c-0.87,1.61-1.31,3.56-1.31,5.87c0,2.34,0.43,4.32,1.28,5.92c0.86,1.61,2,2.8,3.43,3.59
			c1.43,0.79,3,1.18,4.72,1.18C787.3,298.08,788.91,297.68,790.41,296.87z"/>
		<path class="st1" d="M829.09,275.72c2.17,2.11,3.25,5.16,3.25,9.15v16.93h-4.72v-16.25c0-2.86-0.72-5.06-2.15-6.58
			c-1.43-1.52-3.39-2.28-5.87-2.28c-2.52,0-4.52,0.79-6,2.36s-2.23,3.86-2.23,6.87v15.88h-4.77v-28.72h4.77v4.09
			c0.94-1.47,2.23-2.6,3.85-3.41c1.63-0.8,3.42-1.21,5.37-1.21C824.09,272.55,826.92,273.61,829.09,275.72z"/>
		<path class="st1" d="M844.4,301.15c-1.75-0.75-3.13-1.8-4.14-3.14c-1.01-1.34-1.57-2.89-1.68-4.64h4.93
			c0.14,1.43,0.81,2.6,2.02,3.51c1.21,0.91,2.79,1.36,4.74,1.36c1.82,0,3.25-0.4,4.3-1.21c1.05-0.8,1.57-1.82,1.57-3.04
			c0-1.26-0.56-2.19-1.68-2.8c-1.12-0.61-2.85-1.21-5.19-1.81c-2.13-0.56-3.87-1.13-5.22-1.7c-1.34-0.58-2.5-1.43-3.46-2.57
			c-0.96-1.13-1.44-2.63-1.44-4.48c0-1.47,0.44-2.81,1.31-4.04c0.87-1.22,2.11-2.19,3.72-2.91c1.61-0.72,3.44-1.08,5.5-1.08
			c3.18,0,5.75,0.8,7.71,2.41c1.96,1.61,3,3.81,3.14,6.6h-4.77c-0.1-1.5-0.71-2.71-1.81-3.62c-1.1-0.91-2.58-1.36-4.43-1.36
			c-1.71,0-3.08,0.37-4.09,1.1c-1.01,0.73-1.52,1.7-1.52,2.88c0,0.94,0.31,1.72,0.92,2.33s1.38,1.1,2.31,1.47
			c0.93,0.37,2.21,0.78,3.85,1.23c2.06,0.56,3.74,1.11,5.03,1.65c1.29,0.54,2.4,1.35,3.33,2.44c0.92,1.08,1.41,2.5,1.44,4.25
			c0,1.57-0.44,2.99-1.31,4.25c-0.87,1.26-2.11,2.25-3.7,2.96c-1.59,0.72-3.42,1.07-5.48,1.07
			C848.12,302.27,846.14,301.9,844.4,301.15z"/>
	</g>
</g>
</svg>
