<?xml version="1.0" encoding="utf-8"?>
<!-- Generator: Adobe Illustrator 24.0.0, SVG Export Plug-In . SVG Version: 6.00 Build 0)  -->
<svg version="1.1" id="Layer_1" xmlns="http://www.w3.org/2000/svg" xmlns:xlink="http://www.w3.org/1999/xlink" x="0px" y="0px"
	 viewBox="0 0 1024 400" style="enable-background:new 0 0 1024 400;" xml:space="preserve">
<style type="text/css">
	.st0{fill:#255946;}
	.st1{fill:#F7C35F;}
</style>
<path class="st0" d="M145.97,262.33c-9.34,0.65-9.34,0.65-10.55-7.62c0-0.38,0-0.78-0.14-1.23c-0.55-3.05,0.69-7-1.66-8.97
	c-2.07-1.72-5.66-0.22-8.61-0.37c-2.95-0.15-5.53,0.09-8.26-0.18s-3.45,0.86-3.69,3.26c-0.32,3.69-0.78,7.38-1.39,11.08
	c-0.7,4.22-0.8,4.25-5.29,4.25c-1.33,0-2.73,0.42-4.36-0.65c0.54-3.69,1.11-7.51,1.65-11.33c0.22-1.56,0.38-3.13,0.58-4.69
	c0.28-2.28-0.42-3.77-2.93-4.2c-2.1-0.38-4.18-0.88-6.23-1.49c-39.89-11.64-68.59-46.52-72.33-87.91c-0.27-2.93-0.53-5.87-0.6-8.82
	c-0.1-5.16,0-5.23,5.24-4.33c5.64,0.83,11.2,2.19,16.59,4.06c40.51,15,63.49,43.94,68.92,86.81c0.55,4.48,0.46,4.48,4.68,4.92
	c4.09,0.41,8.22,0.41,12.31,0c4.42-0.44,4.54-0.42,4.92-4.73c0.45-6.88,1.76-13.67,3.9-20.22c13.44-39.78,40.97-63.32,82.14-70.89
	c4.84-0.9,5.01-0.62,4.98,3.54c0,44.81-29.34,84.32-72.23,97.29c-1.51,0.46-3.03,0.89-4.54,1.23c-5.96,1.55-6.02,1.56-5.17,7.91
	C144.46,253.35,145.23,257.6,145.97,262.33z M31.34,150.07c0.81,4.69,1.23,9.19,2.39,13.54c9,34.82,30.77,57.5,65.1,68.14
	c5.16,1.6,5.42,0.71,4.84-4.07c-4.31-35.9-30.77-66.95-65.87-76.91C35.98,150.25,34.19,149.1,31.34,150.07z M216.05,149.64
	c-45.2,8.34-72.33,52.17-71.53,82.78C180.63,226.25,214.02,191.25,216.05,149.64z"/>
<path class="st1" d="M123.97,64.18c9.85,13.92,20.15,26.62,28.31,40.77c3.93,6.4,6.73,13.42,8.29,20.76
	c3.58,19-8.96,38.53-27.88,43.35c-19.92,4.85-40.01-7.37-44.86-27.29c-1.6-6.58-1.37-13.46,0.65-19.92
	c2.07-6.78,5.04-13.24,8.84-19.22c3.69-5.83,7.38-11.59,11.35-17.23C113.5,78.47,118.53,71.7,123.97,64.18z M123.97,78.05
	c-9.34,13.01-18.74,25.12-25.09,39.19c-1.45,3.22-2.57,6.58-3.35,10.03c-2.54,11.42,2.76,23.62,12.77,30.1
	c9.9,6.33,22.67,5.98,32.21-0.89c11.02-8.04,15.3-22.46,10.45-35.21c-5.81-16.13-16.97-28.93-26.93-43.22H123.97z"/>
<path class="st1" d="M113.34,154.03c-4.56-2.3-8.21-6.08-10.35-10.72c-0.59-1.23-0.76-2.3,0.69-2.86c1.23-0.47,2.79-1.39,3.69,0.18
	c1.81,3.19,4.21,6,7.09,8.27C116.67,150.69,114.55,152.3,113.34,154.03z"/>
<g>
	<path class="st0" d="M333.35,127.33v87.1h-14.29v-38.1h-40.98v38.1h-14.29v-87.1h14.29v37.35h40.98v-37.35H333.35z"/>
	<path class="st0" d="M414.31,145.37l-42.36,101.52h-14.79l14.04-33.59L344,145.37h15.92l19.43,52.64l20.18-52.64H414.31z"/>
	<path class="st0" d="M424.65,161.17c2.88-5.35,6.81-9.5,11.78-12.47c4.97-2.96,10.51-4.45,16.61-4.45c4.51,0,8.96,0.98,13.35,2.95
		c4.39,1.96,7.87,4.57,10.46,7.83v-33.34h14.41v92.74h-14.41v-10.4c-2.34,3.34-5.58,6.1-9.71,8.27c-4.14,2.17-8.88,3.26-14.22,3.26
		c-6.02,0-11.51-1.52-16.48-4.57c-4.97-3.05-8.9-7.31-11.78-12.78c-2.88-5.47-4.32-11.67-4.32-18.61
		C420.32,172.65,421.76,166.51,424.65,161.17z M473.9,167.43c-1.96-3.51-4.53-6.18-7.71-8.02c-3.18-1.84-6.6-2.76-10.28-2.76
		c-3.68,0-7.1,0.9-10.28,2.69c-3.18,1.8-5.75,4.43-7.71,7.9c-1.96,3.47-2.95,7.58-2.95,12.34c0,4.76,0.98,8.94,2.95,12.53
		c1.96,3.59,4.55,6.33,7.77,8.21c3.22,1.88,6.62,2.82,10.21,2.82c3.68,0,7.1-0.92,10.28-2.76c3.17-1.84,5.74-4.53,7.71-8.08
		c1.96-3.55,2.95-7.71,2.95-12.47C476.85,175.08,475.86,170.94,473.9,167.43z"/>
	<path class="st0" d="M532.68,147.19c3.47-1.96,7.58-2.95,12.34-2.95v14.79h-3.63c-5.6,0-9.84,1.42-12.72,4.26
		c-2.88,2.84-4.32,7.77-4.32,14.79v36.34h-14.29v-69.06h14.29v10.03C526.43,151.89,529.21,149.16,532.68,147.19z"/>
	<path class="st0" d="M570.46,211.11c-5.26-2.96-9.4-7.14-12.41-12.53c-3.01-5.39-4.51-11.63-4.51-18.74
		c0-7.02,1.54-13.24,4.64-18.67c3.09-5.43,7.31-9.61,12.66-12.53c5.35-2.92,11.32-4.39,17.92-4.39c6.6,0,12.57,1.46,17.92,4.39
		c5.35,2.93,9.57,7.1,12.66,12.53c3.09,5.43,4.64,11.66,4.64,18.67c0,7.02-1.59,13.24-4.76,18.67c-3.18,5.43-7.5,9.63-12.97,12.6
		c-5.47,2.97-11.51,4.45-18.11,4.45C581.62,215.56,575.73,214.08,570.46,211.11z M598.47,200.52c3.21-1.75,5.83-4.39,7.83-7.9
		c2-3.51,3.01-7.77,3.01-12.78s-0.96-9.25-2.88-12.72c-1.92-3.47-4.47-6.08-7.64-7.83c-3.18-1.75-6.6-2.63-10.28-2.63
		c-3.68,0-7.08,0.88-10.21,2.63c-3.13,1.75-5.62,4.37-7.46,7.83c-1.84,3.47-2.76,7.71-2.76,12.72c0,7.44,1.9,13.18,5.7,17.23
		c3.8,4.05,8.58,6.08,14.35,6.08C591.81,203.15,595.26,202.27,598.47,200.52z"/>
	<path class="st0" d="M667.09,157.03H654.3v57.4h-14.41v-57.4h-8.15v-11.66h8.15v-4.89c0-7.94,2.11-13.72,6.33-17.36
		c4.22-3.63,10.84-5.45,19.86-5.45v11.91c-4.35,0-7.39,0.81-9.15,2.44c-1.75,1.63-2.63,4.45-2.63,8.46v4.89h12.78V157.03z"/>
	<path class="st0" d="M679.3,161.17c2.88-5.35,6.81-9.5,11.78-12.47c4.97-2.96,10.46-4.45,16.48-4.45c5.43,0,10.17,1.07,14.22,3.2
		c4.05,2.13,7.29,4.78,9.71,7.96v-10.03h14.41v69.06H731.5v-10.28c-2.42,3.26-5.72,5.97-9.9,8.15c-4.18,2.17-8.94,3.26-14.29,3.26
		c-5.93,0-11.36-1.52-16.29-4.57c-4.93-3.05-8.83-7.31-11.72-12.78c-2.88-5.47-4.32-11.67-4.32-18.61
		C674.98,172.65,676.42,166.51,679.3,161.17z M728.56,167.43c-1.96-3.51-4.53-6.18-7.71-8.02c-3.18-1.84-6.6-2.76-10.28-2.76
		c-3.68,0-7.1,0.9-10.28,2.69c-3.18,1.8-5.75,4.43-7.71,7.9c-1.96,3.47-2.94,7.58-2.94,12.34c0,4.76,0.98,8.94,2.94,12.53
		c1.96,3.59,4.55,6.33,7.77,8.21c3.22,1.88,6.62,2.82,10.21,2.82c3.68,0,7.1-0.92,10.28-2.76c3.17-1.84,5.74-4.53,7.71-8.08
		c1.96-3.55,2.95-7.71,2.95-12.47C731.5,175.08,730.52,170.94,728.56,167.43z"/>
	<path class="st0" d="M787.34,147.19c3.47-1.96,7.58-2.95,12.34-2.95v14.79h-3.63c-5.6,0-9.84,1.42-12.72,4.26
		c-2.88,2.84-4.32,7.77-4.32,14.79v36.34h-14.29v-69.06H779v10.03C781.09,151.89,783.87,149.16,787.34,147.19z"/>
	<path class="st0" d="M911.03,147.63c4.3,2.26,7.69,5.6,10.15,10.03c2.46,4.43,3.7,9.78,3.7,16.04v40.73h-14.16v-38.6
		c0-6.18-1.55-10.92-4.64-14.22c-3.09-3.3-7.31-4.95-12.66-4.95c-5.35,0-9.59,1.65-12.72,4.95c-3.13,3.3-4.7,8.04-4.7,14.22v38.6
		h-14.16v-38.6c0-6.18-1.55-10.92-4.64-14.22c-3.09-3.3-7.31-4.95-12.66-4.95c-5.35,0-9.59,1.65-12.72,4.95
		c-3.13,3.3-4.7,8.04-4.7,14.22v38.6h-14.29v-69.06h14.29v7.9c2.34-2.84,5.3-5.05,8.9-6.64c3.59-1.59,7.44-2.38,11.53-2.38
		c5.51,0,10.44,1.17,14.79,3.51c4.34,2.34,7.69,5.72,10.03,10.15c2.09-4.18,5.35-7.5,9.78-9.96c4.43-2.46,9.19-3.7,14.29-3.7
		C901.86,144.25,906.73,145.37,911.03,147.63z"/>
	<path class="st0" d="M953.52,212.61c-4.3-1.96-7.71-4.64-10.21-8.02c-2.51-3.38-3.84-7.16-4.01-11.34h14.79
		c0.25,2.93,1.65,5.37,4.2,7.33c2.55,1.96,5.74,2.95,9.59,2.95c4.01,0,7.12-0.77,9.34-2.32c2.21-1.54,3.32-3.53,3.32-5.95
		c0-2.59-1.23-4.51-3.7-5.77c-2.46-1.25-6.37-2.63-11.72-4.14c-5.18-1.42-9.4-2.8-12.66-4.14c-3.26-1.34-6.08-3.38-8.46-6.14
		c-2.38-2.76-3.57-6.39-3.57-10.9c0-3.68,1.08-7.04,3.26-10.09c2.17-3.05,5.28-5.45,9.34-7.21c4.05-1.75,8.71-2.63,13.97-2.63
		c7.85,0,14.18,1.99,18.99,5.95c4.8,3.97,7.37,9.38,7.71,16.23H979.4c-0.25-3.09-1.5-5.56-3.76-7.39c-2.26-1.84-5.31-2.76-9.15-2.76
		c-3.76,0-6.64,0.71-8.65,2.13c-2.01,1.42-3.01,3.3-3.01,5.64c0,1.84,0.67,3.38,2,4.64c1.33,1.25,2.96,2.24,4.89,2.94
		c1.92,0.71,4.76,1.61,8.52,2.69c5.01,1.34,9.13,2.69,12.34,4.07c3.21,1.38,5.99,3.41,8.33,6.08c2.34,2.67,3.55,6.23,3.63,10.65
		c0,3.93-1.09,7.44-3.26,10.53c-2.17,3.09-5.24,5.51-9.21,7.27c-3.97,1.75-8.63,2.63-13.97,2.63
		C962.68,215.56,957.82,214.57,953.52,212.61z"/>
</g>
<g>
	<path class="st0" d="M400.47,266.81v3.99h-10.24v33.58h-4.9V270.8h-10.29v-3.99H400.47z"/>
	<path class="st0" d="M433.29,291.45h-23.61c0.18,2.91,1.18,5.18,2.99,6.82c1.81,1.63,4.02,2.45,6.6,2.45
		c2.12,0,3.89-0.49,5.31-1.48c1.42-0.99,2.42-2.31,2.99-3.96h5.28c-0.79,2.84-2.37,5.15-4.74,6.93c-2.37,1.78-5.32,2.67-8.84,2.67
		c-2.8,0-5.31-0.63-7.52-1.89s-3.94-3.04-5.2-5.36c-1.26-2.32-1.89-5-1.89-8.06c0-3.05,0.61-5.73,1.83-8.03
		c1.22-2.3,2.94-4.07,5.15-5.31c2.21-1.24,4.75-1.86,7.63-1.86c2.8,0,5.28,0.61,7.44,1.83c2.16,1.22,3.82,2.9,4.99,5.04
		c1.17,2.14,1.75,4.55,1.75,7.25C433.45,289.42,433.4,290.4,433.29,291.45z M427.15,282.63c-0.83-1.35-1.95-2.37-3.37-3.07
		c-1.42-0.7-2.99-1.05-4.72-1.05c-2.48,0-4.59,0.79-6.33,2.37c-1.74,1.58-2.74,3.77-2.99,6.58h18.65
		C428.39,285.59,427.97,283.98,427.15,282.63z"/>
	<path class="st0" d="M439.92,281.55c1.22-2.28,2.92-4.05,5.09-5.31c2.17-1.26,4.66-1.89,7.46-1.89c3.63,0,6.62,0.88,8.97,2.64
		c2.35,1.76,3.91,4.2,4.66,7.33h-5.28c-0.5-1.8-1.48-3.22-2.94-4.26c-1.46-1.04-3.26-1.56-5.42-1.56c-2.8,0-5.07,0.96-6.79,2.88
		c-1.73,1.92-2.59,4.64-2.59,8.17c0,3.56,0.86,6.31,2.59,8.25c1.72,1.94,3.99,2.91,6.79,2.91c2.16,0,3.95-0.5,5.39-1.51
		c1.44-1.01,2.43-2.44,2.96-4.31h5.28c-0.79,3.02-2.37,5.44-4.74,7.25c-2.37,1.81-5.34,2.72-8.89,2.72c-2.8,0-5.29-0.63-7.46-1.89
		c-2.17-1.26-3.87-3.04-5.09-5.34c-1.22-2.3-1.83-4.99-1.83-8.08C438.09,286.5,438.7,283.84,439.92,281.55z"/>
	<path class="st0" d="M493.33,275.73c1.8,0.95,3.21,2.38,4.23,4.29c1.02,1.91,1.54,4.22,1.54,6.95v17.41h-4.85v-16.71
		c0-2.95-0.74-5.2-2.21-6.76c-1.47-1.56-3.49-2.34-6.04-2.34c-2.59,0-4.64,0.81-6.17,2.43c-1.53,1.62-2.29,3.97-2.29,7.06v16.33
		h-4.9V264.5h4.9v14.55c0.97-1.51,2.31-2.68,4.02-3.5c1.71-0.83,3.62-1.24,5.74-1.24C489.52,274.31,491.54,274.78,493.33,275.73z"/>
	<path class="st0" d="M543.73,296.03h-16.38l-3.02,8.35h-5.17l13.58-37.35h5.66l13.53,37.35h-5.17L543.73,296.03z M542.33,292.04
		l-6.79-18.97l-6.79,18.97H542.33z"/>
	<path class="st0" d="M576.74,276.03c1.92,1.11,3.35,2.52,4.28,4.2v-5.39h4.96v30.18c0,2.7-0.58,5.09-1.72,7.2
		c-1.15,2.1-2.79,3.75-4.93,4.93c-2.14,1.19-4.63,1.78-7.46,1.78c-3.88,0-7.12-0.92-9.7-2.75c-2.59-1.83-4.11-4.33-4.58-7.49h4.85
		c0.54,1.8,1.65,3.24,3.34,4.34c1.69,1.1,3.72,1.64,6.09,1.64c2.69,0,4.9-0.84,6.6-2.53c1.71-1.69,2.56-4.06,2.56-7.12v-6.2
		c-0.97,1.72-2.41,3.16-4.31,4.31c-1.91,1.15-4.13,1.72-6.68,1.72c-2.62,0-5-0.65-7.14-1.94c-2.14-1.29-3.82-3.11-5.04-5.44
		c-1.22-2.33-1.83-4.99-1.83-7.98c0-3.02,0.61-5.67,1.83-7.95c1.22-2.28,2.9-4.05,5.04-5.31s4.52-1.89,7.14-1.89
		C572.58,274.36,574.82,274.92,576.74,276.03z M579.68,283.74c-0.9-1.65-2.11-2.92-3.64-3.8c-1.53-0.88-3.21-1.32-5.04-1.32
		c-1.83,0-3.5,0.43-5.01,1.29c-1.51,0.86-2.71,2.12-3.61,3.77c-0.9,1.65-1.35,3.59-1.35,5.82c0,2.26,0.45,4.23,1.35,5.9
		c0.9,1.67,2.1,2.95,3.61,3.83c1.51,0.88,3.18,1.32,5.01,1.32c1.83,0,3.51-0.44,5.04-1.32c1.53-0.88,2.74-2.16,3.64-3.83
		c0.9-1.67,1.35-3.62,1.35-5.85C581.03,287.33,580.58,285.39,579.68,283.74z"/>
	<path class="st0" d="M602.88,275.71c1.6-0.93,3.55-1.4,5.85-1.4v5.07h-1.29c-5.5,0-8.25,2.98-8.25,8.95v16.06h-4.9v-29.54h4.9v4.8
		C600.05,277.95,601.28,276.64,602.88,275.71z"/>
	<path class="st0" d="M614.55,269.08c-0.65-0.65-0.97-1.44-0.97-2.37s0.32-1.72,0.97-2.37c0.65-0.65,1.44-0.97,2.37-0.97
		c0.9,0,1.66,0.32,2.29,0.97c0.63,0.65,0.94,1.44,0.94,2.37s-0.31,1.72-0.94,2.37s-1.39,0.97-2.29,0.97
		C615.99,270.05,615.2,269.72,614.55,269.08z M619.29,274.84v29.54h-4.9v-29.54H619.29z"/>
	<path class="st0" d="M647.29,303.44c-1.96-0.88-3.5-2.1-4.61-3.67c-1.11-1.56-1.69-3.37-1.72-5.42h5.23
		c0.18,1.76,0.91,3.24,2.18,4.45c1.27,1.2,3.13,1.81,5.58,1.81c2.34,0,4.18-0.58,5.52-1.75c1.35-1.17,2.02-2.67,2.02-4.5
		c0-1.44-0.4-2.6-1.19-3.5c-0.79-0.9-1.78-1.58-2.96-2.05c-1.19-0.47-2.79-0.97-4.8-1.51c-2.48-0.65-4.46-1.29-5.96-1.94
		c-1.49-0.65-2.77-1.66-3.83-3.04c-1.06-1.38-1.59-3.24-1.59-5.58c0-2.05,0.52-3.86,1.56-5.44c1.04-1.58,2.51-2.8,4.39-3.67
		c1.89-0.86,4.05-1.29,6.5-1.29c3.52,0,6.4,0.88,8.65,2.64s3.51,4.1,3.8,7.01h-5.39c-0.18-1.44-0.93-2.7-2.26-3.8
		c-1.33-1.1-3.09-1.64-5.28-1.64c-2.05,0-3.72,0.53-5.01,1.59c-1.29,1.06-1.94,2.54-1.94,4.45c0,1.37,0.39,2.48,1.16,3.34
		s1.72,1.52,2.86,1.97c1.13,0.45,2.72,0.96,4.77,1.54c2.48,0.68,4.47,1.36,5.98,2.02c1.51,0.67,2.8,1.69,3.88,3.07
		c1.08,1.38,1.62,3.26,1.62,5.63c0,1.83-0.49,3.56-1.46,5.17c-0.97,1.62-2.41,2.93-4.31,3.93c-1.9,1.01-4.15,1.51-6.74,1.51
		C651.47,304.76,649.25,304.32,647.29,303.44z"/>
	<path class="st0" d="M679.04,302.98c-2.25-1.26-4.01-3.04-5.28-5.36c-1.28-2.32-1.91-5-1.91-8.06c0-3.02,0.66-5.69,1.97-8
		c1.31-2.32,3.1-4.1,5.36-5.34c2.26-1.24,4.8-1.86,7.6-1.86s5.34,0.62,7.6,1.86c2.26,1.24,4.05,3.01,5.36,5.31s1.97,4.98,1.97,8.03
		c0,3.05-0.67,5.74-2.02,8.06c-1.35,2.32-3.17,4.11-5.47,5.36c-2.3,1.26-4.85,1.89-7.65,1.89
		C683.79,304.87,681.28,304.24,679.04,302.98z M691.52,299.31c1.54-0.83,2.79-2.07,3.75-3.72c0.95-1.65,1.43-3.67,1.43-6.04
		c0-2.37-0.47-4.38-1.4-6.04c-0.93-1.65-2.16-2.88-3.67-3.69c-1.51-0.81-3.14-1.21-4.91-1.21c-1.8,0-3.44,0.4-4.93,1.21
		s-2.69,2.04-3.58,3.69c-0.9,1.65-1.35,3.67-1.35,6.04c0,2.41,0.44,4.44,1.32,6.09c0.88,1.65,2.06,2.88,3.53,3.69
		c1.47,0.81,3.09,1.21,4.85,1.21C688.32,300.55,689.97,300.14,691.52,299.31z"/>
	<path class="st0" d="M713.08,264.5v39.88h-4.9V264.5H713.08z"/>
	<path class="st0" d="M747.62,274.84v29.54h-4.9v-4.37c-0.94,1.51-2.24,2.69-3.91,3.53c-1.67,0.84-3.51,1.27-5.52,1.27
		c-2.3,0-4.37-0.48-6.2-1.43c-1.83-0.95-3.28-2.38-4.34-4.29c-1.06-1.9-1.59-4.22-1.59-6.95v-17.3h4.85v16.65
		c0,2.91,0.74,5.15,2.21,6.71c1.47,1.56,3.49,2.34,6.04,2.34c2.62,0,4.69-0.81,6.2-2.42c1.51-1.62,2.26-3.97,2.26-7.06v-16.22
		H747.62z"/>
	<path class="st0" d="M761.91,278.89v17.41c0,1.44,0.3,2.45,0.92,3.05c0.61,0.59,1.67,0.89,3.18,0.89h3.61v4.15h-4.42
		c-2.73,0-4.78-0.63-6.14-1.89c-1.37-1.26-2.05-3.32-2.05-6.2v-17.41h-3.83v-4.04H757v-7.44h4.9v7.44h7.71v4.04H761.91z"/>
	<path class="st0" d="M775.7,269.08c-0.65-0.65-0.97-1.44-0.97-2.37s0.32-1.72,0.97-2.37c0.65-0.65,1.44-0.97,2.37-0.97
		c0.9,0,1.66,0.32,2.29,0.97c0.63,0.65,0.94,1.44,0.94,2.37s-0.31,1.72-0.94,2.37s-1.39,0.97-2.29,0.97
		C777.14,270.05,776.35,269.72,775.7,269.08z M780.45,274.84v29.54h-4.9v-29.54H780.45z"/>
	<path class="st0" d="M794.16,302.98c-2.25-1.26-4.01-3.04-5.28-5.36c-1.28-2.32-1.91-5-1.91-8.06c0-3.02,0.66-5.69,1.97-8
		c1.31-2.32,3.1-4.1,5.36-5.34c2.26-1.24,4.8-1.86,7.6-1.86s5.34,0.62,7.6,1.86c2.26,1.24,4.05,3.01,5.36,5.31s1.97,4.98,1.97,8.03
		c0,3.05-0.67,5.74-2.02,8.06c-1.35,2.32-3.17,4.11-5.47,5.36c-2.3,1.26-4.85,1.89-7.65,1.89
		C798.92,304.87,796.41,304.24,794.16,302.98z M806.64,299.31c1.54-0.83,2.79-2.07,3.75-3.72c0.95-1.65,1.43-3.67,1.43-6.04
		c0-2.37-0.47-4.38-1.4-6.04c-0.93-1.65-2.16-2.88-3.67-3.69c-1.51-0.81-3.14-1.21-4.91-1.21c-1.8,0-3.44,0.4-4.93,1.21
		s-2.69,2.04-3.58,3.69c-0.9,1.65-1.35,3.67-1.35,6.04c0,2.41,0.44,4.44,1.32,6.09c0.88,1.65,2.06,2.88,3.53,3.69
		c1.47,0.81,3.09,1.21,4.85,1.21C803.44,300.55,805.1,300.14,806.64,299.31z"/>
	<path class="st0" d="M846.42,277.57c2.23,2.17,3.34,5.31,3.34,9.41v17.41h-4.85v-16.71c0-2.95-0.74-5.2-2.21-6.76
		c-1.47-1.56-3.49-2.34-6.04-2.34c-2.59,0-4.64,0.81-6.17,2.43c-1.53,1.62-2.29,3.97-2.29,7.06v16.33h-4.9v-29.54h4.9v4.2
		c0.97-1.51,2.29-2.68,3.96-3.5c1.67-0.83,3.51-1.24,5.52-1.24C841.28,274.31,844.19,275.39,846.42,277.57z"/>
	<path class="st0" d="M862.16,303.71c-1.8-0.77-3.22-1.85-4.26-3.23s-1.62-2.97-1.72-4.77h5.07c0.14,1.47,0.84,2.68,2.08,3.61
		c1.24,0.93,2.87,1.4,4.88,1.4c1.87,0,3.34-0.41,4.42-1.24c1.08-0.83,1.62-1.87,1.62-3.13c0-1.29-0.58-2.25-1.72-2.88
		c-1.15-0.63-2.93-1.25-5.34-1.86c-2.19-0.57-3.98-1.16-5.36-1.75c-1.38-0.59-2.57-1.47-3.56-2.64c-0.99-1.17-1.48-2.7-1.48-4.61
		c0-1.51,0.45-2.89,1.35-4.15c0.9-1.26,2.17-2.25,3.83-2.99c1.65-0.74,3.54-1.1,5.66-1.1c3.27,0,5.91,0.83,7.92,2.48
		c2.01,1.65,3.09,3.92,3.23,6.79h-4.91c-0.11-1.54-0.73-2.78-1.86-3.72s-2.65-1.4-4.55-1.4c-1.76,0-3.16,0.38-4.2,1.13
		s-1.56,1.74-1.56,2.96c0,0.97,0.31,1.77,0.94,2.4c0.63,0.63,1.42,1.13,2.37,1.51c0.95,0.38,2.27,0.8,3.96,1.27
		c2.12,0.58,3.84,1.14,5.17,1.7c1.33,0.56,2.47,1.39,3.42,2.51c0.95,1.11,1.45,2.57,1.48,4.37c0,1.62-0.45,3.07-1.35,4.37
		c-0.9,1.29-2.17,2.31-3.8,3.04c-1.64,0.74-3.51,1.11-5.63,1.11C865.98,304.87,863.95,304.48,862.16,303.71z"/>
</g>
</svg>
