<?xml version="1.0" encoding="utf-8"?>
<!-- Generator: Adobe Illustrator 24.0.0, SVG Export Plug-In . SVG Version: 6.00 Build 0)  -->
<svg version="1.1" id="Layer_1" xmlns="http://www.w3.org/2000/svg" xmlns:xlink="http://www.w3.org/1999/xlink" x="0px" y="0px"
	 viewBox="0 0 1024 400" style="enable-background:new 0 0 1024 400;" xml:space="preserve">
<style type="text/css">
	.st0{fill:#FFFFFF;}
</style>
<g>
	<path class="st0" d="M167.4,260.9c-9.1,0.6-9.1,0.6-10.3-7.4c0-0.4,0-0.8-0.1-1.2c-0.5-3,0.7-6.8-1.6-8.7c-2-1.7-5.5-0.2-8.4-0.4
		s-5.4,0.1-8-0.2s-3.4,0.8-3.6,3.2c-0.3,3.6-0.8,7.2-1.4,10.8c-0.7,4.1-0.8,4.1-5.1,4.1c-1.3,0-2.7,0.4-4.2-0.6
		c0.5-3.6,1.1-7.3,1.6-11c0.2-1.5,0.4-3,0.6-4.6c0.3-2.2-0.4-3.7-2.8-4.1c-2-0.4-4.1-0.9-6.1-1.4c-38.8-11.3-66.7-45.2-70.3-85.5
		c-0.3-2.9-0.5-5.7-0.6-8.6c-0.1-5,0-5.1,5.1-4.2c5.5,0.8,10.9,2.1,16.1,3.9c39.4,14.6,61.7,42.7,67,84.4c0.5,4.4,0.4,4.4,4.6,4.8
		c4,0.4,8,0.4,12,0c4.3-0.4,4.4-0.4,4.8-4.6c0.4-6.7,1.7-13.3,3.8-19.7c13.1-38.7,39.8-61.6,79.9-68.9c4.7-0.9,4.9-0.6,4.9,3.4
		c0,43.6-28.5,82-70.2,94.6c-1.5,0.4-2.9,0.9-4.4,1.2c-5.8,1.5-5.9,1.5-5,7.7C165.9,252.2,166.6,256.3,167.4,260.9z M55.9,151.7
		c0.8,4.6,1.2,8.9,2.3,13.2c8.8,33.9,29.9,55.9,63.3,66.3c5,1.6,5.3,0.7,4.7-4c-4.2-34.9-29.9-65.1-64.1-74.8
		C60.4,151.9,58.7,150.8,55.9,151.7z M235.5,151.3c-44,8.1-70.3,50.7-69.6,80.5C201.1,225.8,233.6,191.8,235.5,151.3z"/>
	<path class="st0" d="M146,68.2c9.6,13.5,19.6,25.9,27.5,39.7c3.8,6.2,6.6,13.1,8.1,20.2c3.5,18.5-8.7,37.5-27.1,42.1
		c-19.4,4.7-38.9-7.2-43.6-26.5c-1.6-6.4-1.3-13.1,0.6-19.4c2-6.6,4.9-12.9,8.6-18.7c3.6-5.7,7.2-11.3,11-16.8
		C135.8,82.1,140.7,75.5,146,68.2z M146,81.7c-9.1,12.7-18.2,24.4-24.4,38.1c-1.4,3.1-2.5,6.4-3.3,9.8c-2.5,11.1,2.7,23,12.4,29.3
		c9.6,6.1,22,5.8,31.3-0.9c10.7-7.8,14.9-21.8,10.2-34.2C166.6,108.1,155.7,95.6,146,81.7C146,81.7,146,81.7,146,81.7z"/>
	<path class="st0" d="M135.6,155.6c-4.4-2.2-8-5.9-10.1-10.4c-0.6-1.2-0.7-2.2,0.7-2.8c1.2-0.4,2.7-1.4,3.6,0.2
		c1.8,3.1,4.1,5.8,6.9,8C138.9,152.3,136.8,153.9,135.6,155.6z"/>
	<g>
		<path class="st0" d="M346.1,129.6v84.7h-13.9v-37.1h-39.9v37.1h-13.9v-84.7h13.9V166h39.9v-36.3H346.1z"/>
		<path class="st0" d="M424.8,147.2l-41.2,98.7h-14.4l13.6-32.7l-26.5-66.1h15.5l18.9,51.2l19.6-51.2H424.8z"/>
		<path class="st0" d="M434.9,162.5c2.8-5.2,6.6-9.2,11.5-12.1c4.8-2.9,10.2-4.3,16.1-4.3c4.4,0,8.7,1,13,2.9
			c4.3,1.9,7.7,4.4,10.2,7.6v-32.4h14v90.2h-14v-10.1c-2.3,3.3-5.4,5.9-9.5,8c-4,2.1-8.6,3.2-13.8,3.2c-5.9,0-11.2-1.5-16-4.4
			c-4.8-3-8.6-7.1-11.5-12.4c-2.8-5.3-4.2-11.4-4.2-18.1C430.7,173.7,432.1,167.7,434.9,162.5z M482.8,168.6c-1.9-3.4-4.4-6-7.5-7.8
			c-3.1-1.8-6.4-2.7-10-2.7c-3.6,0-6.9,0.9-10,2.6c-3.1,1.8-5.6,4.3-7.5,7.7s-2.9,7.4-2.9,12s1,8.7,2.9,12.2c1.9,3.5,4.4,6.1,7.6,8
			s6.4,2.7,9.9,2.7c3.6,0,6.9-0.9,10-2.7s5.6-4.4,7.5-7.9s2.9-7.5,2.9-12.1C485.6,176.1,484.7,172,482.8,168.6z"/>
		<path class="st0" d="M539.9,148.9c3.4-1.9,7.4-2.9,12-2.9v14.4h-3.5c-5.5,0-9.6,1.4-12.4,4.1s-4.2,7.6-4.2,14.4v35.3h-13.9v-67.1
			h13.9v9.8C533.8,153.5,536.6,150.9,539.9,148.9z"/>
		<path class="st0" d="M576.7,211.1c-5.1-2.9-9.1-6.9-12.1-12.2c-2.9-5.2-4.4-11.3-4.4-18.2c0-6.8,1.5-12.9,4.5-18.2
			c3-5.3,7.1-9.3,12.3-12.2c5.2-2.8,11-4.3,17.4-4.3s12.2,1.4,17.4,4.3s9.3,6.9,12.3,12.2c3,5.3,4.5,11.3,4.5,18.2
			c0,6.8-1.5,12.9-4.6,18.2s-7.3,9.4-12.6,12.3c-5.3,2.9-11.2,4.3-17.6,4.3C587.5,215.4,581.8,214,576.7,211.1z M603.9,200.8
			c3.1-1.7,5.7-4.3,7.6-7.7s2.9-7.6,2.9-12.4c0-4.9-0.9-9-2.8-12.4s-4.3-5.9-7.4-7.6c-3.1-1.7-6.4-2.6-10-2.6
			c-3.6,0-6.9,0.9-9.9,2.6c-3,1.7-5.5,4.3-7.3,7.6c-1.8,3.4-2.7,7.5-2.7,12.4c0,7.2,1.8,12.8,5.5,16.8c3.7,3.9,8.3,5.9,14,5.9
			C597.4,203.4,600.8,202.5,603.9,200.8z"/>
		<path class="st0" d="M670.6,158.5h-12.4v55.8h-14v-55.8h-7.9v-11.3h7.9v-4.8c0-7.7,2-13.4,6.2-16.9c4.1-3.5,10.5-5.3,19.3-5.3
			v11.6c-4.2,0-7.2,0.8-8.9,2.4c-1.7,1.6-2.6,4.3-2.6,8.2v4.8h12.4L670.6,158.5L670.6,158.5z"/>
		<path class="st0" d="M682.5,162.5c2.8-5.2,6.6-9.2,11.5-12.1c4.8-2.9,10.2-4.3,16-4.3c5.3,0,9.9,1,13.8,3.1s7.1,4.6,9.5,7.7v-9.8
			h14v67.2h-14v-10c-2.4,3.2-5.6,5.8-9.6,7.9s-8.7,3.2-13.9,3.2c-5.8,0-11-1.5-15.8-4.4c-4.8-3-8.6-7.1-11.4-12.4
			c-2.8-5.3-4.2-11.4-4.2-18.1C678.3,173.7,679.7,167.7,682.5,162.5z M730.4,168.6c-1.9-3.4-4.4-6-7.5-7.8c-3.1-1.8-6.4-2.7-10-2.7
			c-3.6,0-6.9,0.9-10,2.6c-3.1,1.8-5.6,4.3-7.5,7.7s-2.9,7.4-2.9,12s1,8.7,2.9,12.2s4.4,6.1,7.6,8s6.4,2.7,9.9,2.7
			c3.6,0,6.9-0.9,10-2.7c3.1-1.8,5.6-4.4,7.5-7.9c1.9-3.4,2.9-7.5,2.9-12.1C733.3,176.1,732.3,172,730.4,168.6z"/>
		<path class="st0" d="M787.6,148.9c3.4-1.9,7.4-2.9,12-2.9v14.4H796c-5.5,0-9.6,1.4-12.4,4.1s-4.2,7.6-4.2,14.4v35.3h-13.9v-67.1
			h13.9v9.8C781.5,153.5,784.2,150.9,787.6,148.9z"/>
		<path class="st0" d="M907.9,149.4c4.2,2.2,7.5,5.4,9.9,9.8s3.6,9.5,3.6,15.6v39.6h-13.8v-37.5c0-6-1.5-10.6-4.5-13.8
			s-7.1-4.8-12.3-4.8s-9.3,1.6-12.4,4.8c-3,3.2-4.6,7.8-4.6,13.8v37.5H860v-37.5c0-6-1.5-10.6-4.5-13.8s-7.1-4.8-12.3-4.8
			s-9.3,1.6-12.4,4.8c-3,3.2-4.6,7.8-4.6,13.8v37.5h-13.9v-67.1h13.9v7.7c2.3-2.8,5.2-4.9,8.7-6.5c3.5-1.5,7.2-2.3,11.2-2.3
			c5.4,0,10.2,1.1,14.4,3.4c4.2,2.3,7.5,5.6,9.8,9.9c2-4.1,5.2-7.3,9.5-9.7c4.3-2.4,8.9-3.6,13.9-3.6
			C899,146.1,903.7,147.2,907.9,149.4z"/>
		<path class="st0" d="M949.2,212.6c-4.2-1.9-7.5-4.5-9.9-7.8c-2.4-3.3-3.7-7-3.9-11h14.4c0.2,2.9,1.6,5.2,4.1,7.1
			c2.5,1.9,5.6,2.9,9.3,2.9c3.9,0,6.9-0.8,9.1-2.3s3.2-3.4,3.2-5.8c0-2.5-1.2-4.4-3.6-5.6c-2.4-1.2-6.2-2.6-11.4-4
			c-5-1.4-9.1-2.7-12.3-4s-5.9-3.3-8.2-6c-2.3-2.7-3.5-6.2-3.5-10.6c0-3.6,1.1-6.8,3.2-9.8c2.1-3,5.1-5.3,9.1-7
			c3.9-1.7,8.5-2.6,13.6-2.6c7.6,0,13.8,1.9,18.5,5.8c4.7,3.9,7.2,9.1,7.5,15.8h-13.9c-0.2-3-1.5-5.4-3.7-7.2
			c-2.2-1.8-5.2-2.7-8.9-2.7c-3.7,0-6.5,0.7-8.4,2.1c-2,1.4-2.9,3.2-2.9,5.5c0,1.8,0.7,3.3,2,4.5s2.9,2.2,4.8,2.9s4.6,1.6,8.3,2.6
			c4.9,1.3,8.9,2.6,12,4c3.1,1.3,5.8,3.3,8.1,5.9c2.3,2.6,3.5,6.1,3.5,10.4c0,3.8-1.1,7.2-3.2,10.2c-2.1,3-5.1,5.4-9,7.1
			c-3.9,1.7-8.4,2.6-13.6,2.6C958.1,215.4,953.4,214.5,949.2,212.6z"/>
	</g>
	<g>
		<g>
			<path class="st0" d="M403.5,293.7h-15.9l-2.9,8.1h-5l13.2-36.3h5.5l13.2,36.3h-5L403.5,293.7z M402.1,289.8l-6.6-18.5l-6.6,18.5
				H402.1z"/>
			<path class="st0" d="M435.6,274.2c1.9,1.1,3.3,2.5,4.2,4.1v-5.2h4.8v29.4c0,2.6-0.6,5-1.7,7c-1.1,2-2.7,3.6-4.8,4.8
				c-2.1,1.1-4.5,1.7-7.3,1.7c-3.8,0-6.9-0.9-9.4-2.7c-2.5-1.8-4-4.2-4.5-7.3h4.7c0.5,1.8,1.6,3.1,3.3,4.2s3.6,1.6,5.9,1.6
				c2.6,0,4.8-0.8,6.4-2.5c1.7-1.6,2.5-4,2.5-6.9v-6c-0.9,1.7-2.3,3.1-4.2,4.2c-1.9,1.1-4,1.7-6.5,1.7c-2.5,0-4.9-0.6-7-1.9
				c-2.1-1.3-3.7-3-4.9-5.3c-1.2-2.3-1.8-4.9-1.8-7.8c0-2.9,0.6-5.5,1.8-7.7s2.8-3.9,4.9-5.2s4.4-1.8,7-1.8
				C431.5,272.6,433.7,273.1,435.6,274.2z M438.4,281.7c-0.9-1.6-2-2.8-3.5-3.7c-1.5-0.9-3.1-1.3-4.9-1.3s-3.4,0.4-4.9,1.3
				c-1.5,0.8-2.6,2.1-3.5,3.7c-0.9,1.6-1.3,3.5-1.3,5.7c0,2.2,0.4,4.1,1.3,5.7s2,2.9,3.5,3.7c1.5,0.9,3.1,1.3,4.9,1.3
				s3.4-0.4,4.9-1.3c1.5-0.9,2.7-2.1,3.5-3.7c0.9-1.6,1.3-3.5,1.3-5.7S439.3,283.3,438.4,281.7z"/>
			<path class="st0" d="M461,273.9c1.5-0.9,3.5-1.4,5.7-1.4v4.9h-1.3c-5.4,0-8,2.9-8,8.7v15.6h-4.8v-28.7h4.8v4.7
				C458.3,276.1,459.4,274.8,461,273.9z"/>
			<path class="st0" d="M472.3,267.5c-0.6-0.6-0.9-1.4-0.9-2.3s0.3-1.7,0.9-2.3s1.4-0.9,2.3-0.9c0.9,0,1.6,0.3,2.2,0.9
				c0.6,0.6,0.9,1.4,0.9,2.3s-0.3,1.7-0.9,2.3c-0.6,0.6-1.4,0.9-2.2,0.9C473.7,268.4,473,268.1,472.3,267.5z M477,273.1v28.7h-4.8
				v-28.7H477z"/>
			<path class="st0" d="M521.6,265.3v3.9h-10v32.6h-4.8v-32.6h-10v-3.9H521.6z"/>
			<path class="st0" d="M553.5,289.2h-23c0.2,2.8,1.1,5,2.9,6.6c1.8,1.6,3.9,2.4,6.4,2.4c2.1,0,3.8-0.5,5.2-1.4
				c1.4-1,2.3-2.2,2.9-3.9h5.1c-0.8,2.8-2.3,5-4.6,6.7c-2.3,1.7-5.2,2.6-8.6,2.6c-2.7,0-5.2-0.6-7.3-1.8s-3.8-3-5.1-5.2
				c-1.2-2.3-1.8-4.9-1.8-7.8s0.6-5.6,1.8-7.8s2.9-4,5-5.2c2.2-1.2,4.6-1.8,7.4-1.8c2.7,0,5.1,0.6,7.2,1.8c2.1,1.2,3.7,2.8,4.8,4.9
				c1.1,2.1,1.7,4.4,1.7,7C553.6,287.3,553.6,288.2,553.5,289.2z M547.5,280.6c-0.8-1.3-1.9-2.3-3.3-3s-2.9-1-4.6-1
				c-2.4,0-4.5,0.8-6.2,2.3c-1.7,1.5-2.7,3.7-2.9,6.4h18.1C548.7,283.5,548.3,282,547.5,280.6z"/>
			<path class="st0" d="M559.9,279.6c1.2-2.2,2.8-3.9,5-5.2s4.5-1.8,7.3-1.8c3.5,0,6.4,0.9,8.7,2.6c2.3,1.7,3.8,4.1,4.5,7.1h-5.1
				c-0.5-1.8-1.4-3.1-2.9-4.1s-3.2-1.5-5.3-1.5c-2.7,0-4.9,0.9-6.6,2.8c-1.7,1.9-2.5,4.5-2.5,7.9c0,3.5,0.8,6.1,2.5,8
				c1.7,1.9,3.9,2.8,6.6,2.8c2.1,0,3.8-0.5,5.2-1.5c1.4-1,2.4-2.4,2.9-4.2h5.1c-0.8,2.9-2.3,5.3-4.6,7c-2.3,1.8-5.2,2.6-8.7,2.6
				c-2.7,0-5.2-0.6-7.3-1.8s-3.8-3-5-5.2c-1.2-2.2-1.8-4.9-1.8-7.9C558.2,284.4,558.7,281.8,559.9,279.6z"/>
			<path class="st0" d="M611.9,273.9c1.8,0.9,3.1,2.3,4.1,4.2c1,1.9,1.5,4.1,1.5,6.8v16.9h-4.7v-16.3c0-2.9-0.7-5.1-2.2-6.6
				c-1.4-1.5-3.4-2.3-5.9-2.3c-2.5,0-4.5,0.8-6,2.4s-2.2,3.9-2.2,6.9v15.9h-4.8V263h4.8v14.1c0.9-1.5,2.3-2.6,3.9-3.4
				c1.7-0.8,3.5-1.2,5.6-1.2C608.2,272.5,610.1,273,611.9,273.9z"/>
			<path class="st0" d="M644.4,300.9c-1.9-0.9-3.4-2-4.5-3.6c-1.1-1.5-1.6-3.3-1.7-5.3h5.1c0.2,1.7,0.9,3.1,2.1,4.3s3,1.8,5.4,1.8
				c2.3,0,4.1-0.6,5.4-1.7s2-2.6,2-4.4c0-1.4-0.4-2.5-1.2-3.4c-0.8-0.9-1.7-1.5-2.9-2s-2.7-0.9-4.7-1.5c-2.4-0.6-4.3-1.3-5.8-1.9
				c-1.5-0.6-2.7-1.6-3.7-3c-1-1.3-1.5-3.1-1.5-5.4c0-2,0.5-3.8,1.5-5.3c1-1.5,2.4-2.7,4.3-3.6c1.8-0.8,3.9-1.3,6.3-1.3
				c3.4,0,6.2,0.9,8.4,2.6c2.2,1.7,3.4,4,3.7,6.8h-5.2c-0.2-1.4-0.9-2.6-2.2-3.7c-1.3-1.1-3-1.6-5.1-1.6c-2,0-3.6,0.5-4.9,1.5
				c-1.3,1-1.9,2.5-1.9,4.3c0,1.3,0.4,2.4,1.1,3.3s1.7,1.5,2.8,1.9c1.1,0.4,2.7,0.9,4.6,1.5c2.4,0.7,4.3,1.3,5.8,2
				c1.5,0.6,2.7,1.6,3.8,3c1,1.4,1.6,3.2,1.6,5.5c0,1.8-0.5,3.5-1.4,5s-2.3,2.9-4.2,3.8c-1.8,1-4,1.5-6.5,1.5
				C648.5,302.2,646.3,301.7,644.4,300.9z"/>
			<path class="st0" d="M675.3,300.4c-2.2-1.2-3.9-3-5.1-5.2s-1.9-4.9-1.9-7.8c0-2.9,0.6-5.5,1.9-7.8c1.3-2.3,3-4,5.2-5.2
				s4.7-1.8,7.4-1.8s5.2,0.6,7.4,1.8s3.9,2.9,5.2,5.2c1.3,2.2,1.9,4.8,1.9,7.8s-0.7,5.6-2,7.8s-3.1,4-5.3,5.2
				c-2.2,1.2-4.7,1.8-7.4,1.8C679.9,302.3,677.5,301.7,675.3,300.4z M687.4,296.9c1.5-0.8,2.7-2,3.6-3.6c0.9-1.6,1.4-3.6,1.4-5.9
				s-0.5-4.3-1.4-5.9s-2.1-2.8-3.6-3.6s-3.1-1.2-4.8-1.2c-1.8,0-3.3,0.4-4.8,1.2c-1.5,0.8-2.6,2-3.5,3.6c-0.9,1.6-1.3,3.6-1.3,5.9
				c0,2.3,0.4,4.3,1.3,5.9c0.9,1.6,2,2.8,3.4,3.6s3,1.2,4.7,1.2C684.3,298.1,685.9,297.7,687.4,296.9z"/>
			<path class="st0" d="M708.4,263v38.8h-4.8V263H708.4z"/>
			<path class="st0" d="M742,273.1v28.7h-4.8v-4.3c-0.9,1.5-2.2,2.6-3.8,3.4s-3.4,1.2-5.4,1.2c-2.2,0-4.3-0.5-6-1.4
				c-1.8-0.9-3.2-2.3-4.2-4.2c-1-1.9-1.5-4.1-1.5-6.8v-16.8h4.7v16.2c0,2.8,0.7,5,2.2,6.5c1.4,1.5,3.4,2.3,5.9,2.3
				c2.5,0,4.6-0.8,6-2.4s2.2-3.9,2.2-6.9v-15.8L742,273.1L742,273.1z"/>
			<path class="st0" d="M755.8,277v16.9c0,1.4,0.3,2.4,0.9,3s1.6,0.9,3.1,0.9h3.5v4H759c-2.7,0-4.7-0.6-6-1.8c-1.3-1.2-2-3.2-2-6
				V277h-3.7v-3.9h3.7v-7.2h4.8v7.2h7.5v3.9H755.8z"/>
			<path class="st0" d="M769.3,267.5c-0.6-0.6-0.9-1.4-0.9-2.3s0.3-1.7,0.9-2.3s1.4-0.9,2.3-0.9c0.9,0,1.6,0.3,2.2,0.9
				s0.9,1.4,0.9,2.3s-0.3,1.7-0.9,2.3s-1.3,0.9-2.2,0.9C770.7,268.4,769.9,268.1,769.3,267.5z M773.9,273.1v28.7h-4.8v-28.7H773.9z"
				/>
			<path class="st0" d="M787.2,300.4c-2.2-1.2-3.9-3-5.1-5.2s-1.9-4.9-1.9-7.8c0-2.9,0.6-5.5,1.9-7.8c1.3-2.3,3-4,5.2-5.2
				s4.7-1.8,7.4-1.8s5.2,0.6,7.4,1.8s3.9,2.9,5.2,5.2c1.3,2.2,1.9,4.8,1.9,7.8s-0.7,5.6-2,7.8s-3.1,4-5.3,5.2
				c-2.2,1.2-4.7,1.8-7.4,1.8C791.8,302.3,789.4,301.7,787.2,300.4z M799.3,296.9c1.5-0.8,2.7-2,3.6-3.6c0.9-1.6,1.4-3.6,1.4-5.9
				s-0.5-4.3-1.4-5.9s-2.1-2.8-3.6-3.6s-3.1-1.2-4.8-1.2c-1.8,0-3.3,0.4-4.8,1.2c-1.5,0.8-2.6,2-3.5,3.6c-0.9,1.6-1.3,3.6-1.3,5.9
				c0,2.3,0.4,4.3,1.3,5.9c0.9,1.6,2,2.8,3.4,3.6s3,1.2,4.7,1.2C796.2,298.1,797.8,297.7,799.3,296.9z"/>
			<path class="st0" d="M838,275.7c2.2,2.1,3.3,5.2,3.3,9.1v16.9h-4.7v-16.3c0-2.9-0.7-5.1-2.2-6.6c-1.4-1.5-3.4-2.3-5.9-2.3
				c-2.5,0-4.5,0.8-6,2.4s-2.2,3.9-2.2,6.9v15.9h-4.8v-28.7h4.8v4.1c0.9-1.5,2.2-2.6,3.8-3.4c1.6-0.8,3.4-1.2,5.4-1.2
				C833,272.5,835.9,273.6,838,275.7z"/>
			<path class="st0" d="M853.3,301.1c-1.8-0.8-3.1-1.8-4.1-3.1c-1-1.3-1.6-2.9-1.7-4.6h4.9c0.1,1.4,0.8,2.6,2,3.5s2.8,1.4,4.7,1.4
				c1.8,0,3.3-0.4,4.3-1.2c1-0.8,1.6-1.8,1.6-3c0-1.3-0.6-2.2-1.7-2.8s-2.8-1.2-5.2-1.8c-2.1-0.6-3.9-1.1-5.2-1.7
				c-1.3-0.6-2.5-1.4-3.5-2.6c-1-1.1-1.4-2.6-1.4-4.5c0-1.5,0.4-2.8,1.3-4c0.9-1.2,2.1-2.2,3.7-2.9s3.4-1.1,5.5-1.1
				c3.2,0,5.8,0.8,7.7,2.4c2,1.6,3,3.8,3.1,6.6h-4.8c-0.1-1.5-0.7-2.7-1.8-3.6s-2.6-1.4-4.4-1.4c-1.7,0-3.1,0.4-4.1,1.1
				s-1.5,1.7-1.5,2.9c0,0.9,0.3,1.7,0.9,2.3s1.4,1.1,2.3,1.5s2.2,0.8,3.8,1.2c2.1,0.6,3.7,1.1,5,1.6c1.3,0.5,2.4,1.4,3.3,2.4
				c0.9,1.1,1.4,2.5,1.4,4.3c0,1.6-0.4,3-1.3,4.3s-2.1,2.3-3.7,3c-1.6,0.7-3.4,1.1-5.5,1.1C857.1,302.3,855.1,301.9,853.3,301.1z"/>
		</g>
	</g>
</g>
</svg>
