<?xml version="1.0" encoding="utf-8"?>
<!-- Generator: Adobe Illustrator 24.0.0, SVG Export Plug-In . SVG Version: 6.00 Build 0)  -->
<svg version="1.1" id="Layer_1" xmlns="http://www.w3.org/2000/svg" xmlns:xlink="http://www.w3.org/1999/xlink" x="0px" y="0px"
	 viewBox="0 0 500 500" style="enable-background:new 0 0 500 500;" xml:space="preserve">
<style type="text/css">
	.st0{fill:#255946;}
	.st1{fill:#A57735;}
</style>
<path class="st0" d="M299.33,473c-21.1,1.47-21.1,1.47-23.82-17.21c0-0.86,0-1.75-0.31-2.78c-1.25-6.89,1.56-15.82-3.75-20.26
	c-4.67-3.89-12.79-0.5-19.46-0.83c-6.67-0.33-12.48,0.19-18.65-0.42c-6.17-0.61-7.78,1.95-8.34,7.37
	c-0.72,8.34-1.75,16.68-3.14,25.02c-1.58,9.53-1.81,9.59-11.95,9.59c-3,0-6.17,0.95-9.84-1.47c1.22-8.34,2.5-16.95,3.72-25.6
	c0.5-3.53,0.86-7.06,1.31-10.59c0.64-5.14-0.95-8.51-6.62-9.48c-4.75-0.86-9.44-1.99-14.06-3.36
	C94.33,396.67,29.53,317.9,21.08,224.43c-0.61-6.62-1.2-13.26-1.36-19.93c-0.22-11.65,0-11.81,11.84-9.78
	c12.75,1.89,25.29,4.96,37.47,9.17c91.5,33.87,143.39,99.23,155.65,196.07c1.25,10.12,1.03,10.12,10.56,11.12
	c9.24,0.94,18.55,0.94,27.8,0c9.98-1,10.26-0.95,11.12-10.67c1.03-15.53,3.99-30.87,8.81-45.67
	c30.35-89.83,92.53-143.01,185.5-160.1c10.92-2.03,11.31-1.39,11.26,8c0,101.19-66.26,190.45-163.13,219.72
	c-3.42,1.03-6.84,2-10.26,2.78c-13.45,3.5-13.59,3.53-11.67,17.87C295.94,452.74,297.67,462.33,299.33,473z M40.45,219.48
	c1.83,10.59,2.78,20.76,5.39,30.57c20.32,78.63,69.49,129.86,147.04,153.9c11.65,3.61,12.23,1.61,10.92-9.2
	c-9.73-81.08-69.49-151.2-148.76-173.69C50.93,219.87,46.9,217.29,40.45,219.48z M457.63,218.51
	c-102.09,18.85-163.35,117.82-161.54,186.95C377.63,391.53,453.04,312.48,457.63,218.51z"/>
<path class="st1" d="M249.66,25.5c22.24,31.44,45.5,60.12,63.93,92.08c8.87,14.45,15.2,30.31,18.73,46.89
	c8.09,42.92-20.23,87.03-62.96,97.89c-45,10.96-90.36-16.64-101.32-61.64c-3.62-14.85-3.11-30.41,1.48-44.99
	c4.67-15.3,11.38-29.91,19.96-43.42c8.34-13.17,16.68-26.18,25.63-38.91C226.01,57.77,237.38,42.48,249.66,25.5z M249.66,56.83
	c-21.1,29.38-42.33,56.73-56.67,88.5c-3.28,7.28-5.81,14.87-7.56,22.65c-5.73,25.79,6.23,53.34,28.85,67.99
	c22.37,14.29,51.19,13.5,72.74-2c24.88-18.16,34.54-50.73,23.6-79.52C297.5,118,272.29,89.1,249.8,56.83H249.66z"/>
<path class="st1" d="M225.65,228.4c-10.31-5.19-18.55-13.73-23.38-24.21c-1.33-2.78-1.72-5.2,1.56-6.45
	c2.78-1.06,6.31-3.14,8.34,0.42c4.08,7.2,9.51,13.55,16.01,18.68C233.18,220.87,228.37,224.51,225.65,228.4z"/>
</svg>
