<?xml version="1.0" encoding="utf-8"?>
<!-- Generator: Adobe Illustrator 26.0.1, SVG Export Plug-In . SVG Version: 6.00 Build 0)  -->
<svg version="1.1" id="Layer_1" xmlns="http://www.w3.org/2000/svg" xmlns:xlink="http://www.w3.org/1999/xlink" x="0px" y="0px"
	 viewBox="0 0 108 101" style="enable-background:new 0 0 108 101;" xml:space="preserve">
<style type="text/css">
	.st0{fill:#FFFFFF;}
</style>
<g>
	<path class="st0" d="M22.59,8.78c0.09,0,0.18,0,0.27,0.01c1.74,0.16,3.48,0.28,5.21,0.48c11.37,1.28,21.91,4.95,31.61,11.01
		c10.22,6.38,18.49,14.71,24.8,24.96c5.07,8.22,8.47,17.08,10.07,26.61c0.5,2.96,0.7,5.98,1.04,8.97c0.03,0.25,0.06,0.5,0.1,0.75
		c0.02,0.14,0.03,0.28,0.03,0.42v7.15c0,1.76-1.48,3.19-3.24,3.08c-0.02,0-0.03,0-0.05,0c-1.13-0.08-2.28-0.02-3.42-0.02
		c-2.2,0-3.04-0.86-3.08-3.04c-0.07-3.36-0.07-6.73-0.3-10.09c-0.46-6.54-2.02-12.84-4.52-18.9C74.9,45.17,64.6,33.83,50.29,26.16
		c-6.58-3.53-13.61-5.76-20.98-6.89c-4.69-0.71-9.41-0.75-14.13-0.74c-0.64,0-1.34-0.21-1.9-0.53c-0.72-0.41-0.97-1.2-0.97-2.03
		c0-1.3,0.07-2.61-0.02-3.91c0-0.02,0-0.04,0-0.06c-0.09-1.75,1.33-3.22,3.08-3.22H22.59z"/>
	<path class="st0" d="M76.17,85.46c0,1.65,0.01,2.87,0,4.1c-0.02,1.64-1.01,2.62-2.66,2.63c-1.49,0.01-2.99,0.01-4.48,0
		c-1.64-0.02-2.59-1.01-2.64-2.66c-0.09-3.31,0-6.64-0.35-9.92c-1.07-10.03-5.16-18.77-11.95-26.19
		c-6.89-7.54-15.38-12.34-25.39-14.42c-4.15-0.86-8.35-0.96-12.56-0.9c-0.43,0.01-0.87,0.01-1.3,0c-1.5-0.04-2.5-1.03-2.52-2.52
		c-0.02-1.6-0.03-3.2,0-4.81c0.03-1.4,1.03-2.4,2.43-2.44c7.11-0.18,14.15,0.25,21.01,2.37c7.63,2.35,14.49,6.07,20.53,11.27
		c8.16,7.02,13.92,15.65,17.23,25.89C75.41,73.71,76.25,79.74,76.17,85.46z"/>
	<path class="st0" d="M46.84,85.51c0.1-5.22-1.25-10.45-4.34-15.18c-3.93-6.03-9.38-9.99-16.35-11.84
		c-2.91-0.77-5.89-0.88-8.88-0.84c-0.84,0.01-1.68,0.02-2.52-0.01c-1.4-0.05-2.41-1.03-2.44-2.43c-0.03-1.63-0.03-3.26,0-4.89
		c0.03-1.34,0.97-2.39,2.27-2.43c5.85-0.18,11.69-0.05,17.25,2.1c13.1,5.08,21.21,14.45,24.15,28.23c0.82,3.83,0.65,7.72,0.61,11.6
		c-0.01,1.31-1.03,2.31-2.34,2.35c-1.68,0.04-3.37,0.04-5.05,0c-1.35-0.04-2.3-1.06-2.36-2.43c0-0.05,0-0.11,0-0.16
		C46.84,88.37,46.84,87.14,46.84,85.51z"/>
</g>
</svg>
